<svg width="32" height="32" viewBox="0 0 32 32" fill="none" xmlns="http://www.w3.org/2000/svg">
<path d="M10.5455 16C12.3636 14.1819 14.1819 13.2727 16 13.2727C17.8181 13.2727 19.6364 14.1819 21.4545 16M10.5455 16C8.42425 14.1819 6.83335 13.2727 5.7727 13.2727C4.71212 13.2727 3.12121 14.1819 1 16M10.5455 16L16 31M21.4545 16C23.5757 14.1819 25.1666 13.2727 26.2273 13.2727C27.2879 13.2727 28.8788 14.1819 31 16M21.4545 16L16 31M31 16C31 7.71573 24.2843 1 16 1C7.71573 1 1 7.71573 1 16M31 16L16 31M1 16L16 31" stroke="white" stroke-width="1.5" stroke-linejoin="round"/>
</svg>
