<svg width="30" height="30" viewBox="0 0 30 30" fill="none" xmlns="http://www.w3.org/2000/svg">
<path d="M10.8538 8.22067L21.8065 19.4298C22.2086 19.8412 22.368 20.3766 22.2573 20.941C22.1461 21.5054 21.7957 21.9405 21.2682 22.1693L3.52545 29.8554C2.88227 30.134 2.17414 30.0045 1.6717 29.5164L0.582681 28.4593C0.0640056 27.9559 -0.0791959 27.2197 0.21262 26.5588L8.09117 8.72015C8.32541 8.18967 8.7688 7.84028 9.33963 7.73743C9.91047 7.63409 10.4483 7.80583 10.8533 8.22067H10.8538ZM7.79985 13.5757L16.7236 22.2913L20.5945 20.6143L9.64178 9.40516L7.79985 13.5757ZM15.0436 23.0192L7.06858 15.2307L1.76323 27.2434L2.85225 28.3004L15.0436 23.0192ZM12.0826 2.25295C11.8001 2.47981 11.5147 2.90893 11.3873 3.24109C11.0271 4.17806 11.4542 5.04514 12.0777 5.75524C12.3419 6.05542 12.3119 6.51603 12.0113 6.7798C11.7111 7.04406 11.2505 7.01404 10.9867 6.71336C9.99757 5.58694 9.47201 4.17806 10.031 2.72193C10.251 2.14912 10.689 1.50939 11.1737 1.12014C11.4857 0.869656 11.9443 0.919851 12.1948 1.23184C12.4453 1.54384 12.3951 2.00247 12.0831 2.25295H12.0826ZM15.4658 2.30266C15.0524 2.70618 14.6612 3.38479 14.4846 3.92561C14.0299 5.3153 14.553 6.51062 15.5416 7.51943C15.8216 7.80485 15.8172 8.26644 15.5313 8.54644C15.2458 8.82645 14.7842 8.82202 14.5042 8.53611C13.1328 7.13706 12.4792 5.39059 13.1022 3.47927C13.3512 2.71504 13.8684 1.83073 14.4516 1.26285C14.738 0.983332 15.1991 0.989237 15.4786 1.27564C15.7581 1.56204 15.7522 2.02314 15.4658 2.30266ZM18.881 0.119693C20.1226 0.936582 20.5645 2.65057 20.3868 4.05208C20.1373 6.02245 17.9608 8.56268 16.547 9.90022C16.2571 10.1758 15.796 10.1635 15.5204 9.87315C15.2453 9.58281 15.2572 9.12171 15.547 8.84613C16.6611 7.78861 18.7481 5.42553 18.9455 3.86951C19.0503 3.03884 18.8406 1.83368 18.0808 1.33223C17.7472 1.11177 17.6547 0.660021 17.8746 0.325884C18.0951 -0.00776127 18.5469 -0.100276 18.8805 0.119693H18.881ZM18.7343 12.2913C20.0497 10.7791 24.5254 5.77837 26.2315 5.30989C27.2807 5.02201 28.6723 5.11108 29.5768 5.77788C29.8987 6.01507 29.968 6.47125 29.7304 6.79358C29.4932 7.11541 29.0395 7.18627 28.7176 6.94908C28.1556 6.55343 27.2512 6.53621 26.6158 6.71041C25.4146 7.04012 20.8381 12.0871 19.8298 13.2445C19.5675 13.5462 19.1074 13.5782 18.8052 13.3159C18.5036 13.0536 18.4716 12.5935 18.7339 12.2913H18.7343ZM24.8886 13.0334C25.112 12.4946 25.547 11.9267 26.0327 11.6068C27.3348 10.7501 28.6487 11.5606 29.5576 12.5704C29.8253 12.8676 29.8007 13.3287 29.5035 13.5959C29.2063 13.8636 28.7452 13.839 28.478 13.5418C27.6453 12.6166 26.7792 12.2756 26.2291 13.5925C26.075 13.9615 25.6479 14.1367 25.2788 13.9827C24.9097 13.8287 24.7345 13.4015 24.8881 13.0334H24.8886ZM23.1559 16.7946C24.7921 17.8088 27.3186 18.3511 28.6207 16.5396C28.8539 16.2149 29.3096 16.1406 29.6344 16.3738C29.9592 16.6071 30.0335 17.0628 29.8002 17.3875C28.0174 19.8677 24.6991 19.4608 22.3907 18.0292C22.0506 17.8181 21.9453 17.3693 22.1559 17.0293C22.3666 16.6893 22.8158 16.5839 23.1559 16.7946Z" fill="white"/>
</svg>
