<svg width="35" height="35" viewBox="0 0 35 35" fill="none" xmlns="http://www.w3.org/2000/svg">
<path d="M15.1259 28.6647C14.9136 28.2282 14.9425 27.7973 15.0223 27.3559C15.1132 26.8546 15.1805 26.3487 15.247 25.8437C15.2859 25.5482 15.276 25.5475 15.1126 25.2601C14.9662 25.1948 14.8184 25.2597 14.6721 25.2765C13.9609 25.3588 13.2512 25.4601 12.5389 25.5291C11.8858 25.5922 11.719 25.4453 11.6874 24.7901C11.666 24.3508 11.685 23.9092 11.6812 23.4692C11.68 23.3341 11.7185 23.1951 11.6452 23.0392C11.2256 22.9593 10.7868 22.9475 10.3479 22.9348C10.1002 22.9274 9.85297 22.9151 9.60529 22.9138C9.3702 22.9121 9.26251 22.7868 9.2207 22.5682C9.17097 22.3073 9.1762 22.047 9.21195 21.7874C9.30018 21.1464 9.39871 20.5065 9.48999 19.8655C9.50514 19.759 9.55807 19.6536 9.50917 19.5228C8.35342 19.5829 7.18986 20.0186 6.0053 19.5395C5.90029 19.5646 5.83247 19.6743 5.74905 19.7638C4.942 20.6348 4.09613 21.467 3.25254 22.3014C3.194 22.36 3.13355 22.4181 3.06665 22.466C2.83038 22.6337 2.54729 22.5986 2.3654 22.3838C2.20482 22.1941 2.21869 21.9891 2.44137 21.7642C3.13005 21.0671 3.82673 20.3781 4.5196 19.6859C4.79201 19.4135 5.06479 19.1408 5.32687 18.8787C4.89377 17.3223 5.66812 16.2472 6.71234 15.305C7.60088 14.5033 8.65329 13.9496 9.73989 13.4622C10.5216 13.1114 11.3158 12.7984 12.1649 12.6543C12.3539 12.6222 12.4953 12.5356 12.6072 12.3811C14.8191 9.33392 17.875 7.59597 21.4449 6.64748C22.7296 6.30615 24.03 6.08156 25.3581 6.06833C26.2955 6.05912 27.2245 6.1755 28.1523 6.30371C28.4056 6.33895 28.4999 6.46847 28.5486 6.69314C28.7776 7.74703 28.8838 8.81192 28.8173 9.89098C28.694 11.9002 28.2759 13.8488 27.4923 15.7066C26.6135 17.7907 25.3587 19.6234 23.6849 21.1602C23.2373 21.5712 22.7841 21.9757 22.3023 22.3448C22.1356 22.4727 22.057 22.6229 22.0114 22.8207C21.6217 24.5222 20.9202 26.0864 19.8535 27.4729C19.0836 28.4735 18.1386 29.2281 16.8345 29.4084C16.6139 29.4387 16.3878 29.482 16.1808 29.402C15.9078 29.2966 15.7453 29.4211 15.5723 29.6009C14.9303 30.2665 14.2814 30.9245 13.6348 31.5856C13.4129 31.8129 13.1925 32.0409 12.9683 32.2658C12.8214 32.4128 12.6483 32.4868 12.4436 32.4045C12.2514 32.3272 12.14 32.1767 12.092 31.9772C12.0429 31.7735 12.1558 31.6355 12.2859 31.5054C12.8318 30.9587 13.3786 30.412 13.9245 29.8652C14.3144 29.4754 14.7043 29.0855 15.1255 28.6643L15.1259 28.6647ZM21.3948 7.77954C21.3029 7.73588 21.2384 7.75856 21.1719 7.77705C20.3214 8.01769 19.4997 8.33764 18.6932 8.69724C17.4224 9.26371 16.2893 10.0374 15.2661 10.9807C13.7528 12.3752 12.6042 14.0248 11.7321 15.8821C10.8531 17.7555 10.4741 19.7524 10.1798 21.7743C10.1744 21.8117 10.1907 21.8517 10.2005 21.9151C10.7084 21.9172 11.2174 21.9587 11.7186 21.9113C12.2698 21.8588 12.7648 22.3239 12.7413 22.8941C12.7255 23.2655 12.6951 23.6361 12.6801 24.0075C12.674 24.1545 12.6252 24.3092 12.7236 24.4597C13.064 24.4817 13.4046 24.4228 13.7451 24.3915C16.3656 24.1472 18.813 23.3854 21.0363 21.9373C21.7561 21.4688 22.4264 20.9416 23.0514 20.3561C25.0257 18.5067 26.2713 16.2127 27.1211 13.6803C27.1464 13.6054 27.1879 13.5237 27.0923 13.4373C25.5694 13.3529 24.1633 12.937 23.0449 11.8025C21.9417 10.6832 21.3577 9.35237 21.3936 7.77993L21.3948 7.77954ZM22.4977 7.45927C22.3933 7.84842 22.4691 8.22949 22.5105 8.60988C22.7821 11.1204 25.0897 12.4279 27.0023 12.3426C27.4836 12.3211 27.5069 12.3093 27.5924 11.837C27.7719 10.8442 27.8241 9.84193 27.7766 8.83567C27.7566 8.41019 27.7214 7.98476 27.6756 7.56087C27.6427 7.25869 27.5947 7.22523 27.2891 7.17981C27.2075 7.1678 27.1251 7.1619 27.0427 7.156C25.637 7.05112 24.2385 7.12177 22.8457 7.34353C22.7377 7.36098 22.6254 7.36736 22.4974 7.45889L22.4977 7.45927ZM11.4629 13.9448C11.4133 13.9511 11.3572 13.9493 11.3072 13.9651C10.1041 14.339 8.97539 14.8731 7.93213 15.5806C7.22414 16.0609 6.6559 16.6687 6.33978 17.482C6.26988 17.6623 6.20721 17.8445 6.20367 18.0399C6.19654 18.4521 6.4576 18.7507 6.86856 18.7775C7.07308 18.7908 7.28186 18.7837 7.48495 18.758C8.09844 18.6806 8.70857 18.5699 9.32354 18.5115C9.69725 18.4759 9.86176 18.3113 9.95922 17.9504C10.3147 16.6341 10.7805 15.3559 11.4265 14.1487C11.4591 14.088 11.4971 14.0302 11.4633 13.9452L11.4629 13.9448ZM20.8347 23.3564C20.6348 23.4481 20.5091 23.503 20.3853 23.562C19.3013 24.0826 18.1927 24.5357 17.0143 24.7959C16.8398 24.8341 16.6702 24.8941 16.4976 24.9433C16.3654 24.9811 16.2885 25.0572 16.2744 25.203C16.1902 26.0806 16.0857 26.9564 16.0198 27.8347C15.9827 28.3294 16.3088 28.5552 16.7984 28.4159C17.4748 28.2237 18.0565 27.8849 18.5524 27.3708C19.6119 26.2725 20.2438 24.9325 20.7976 23.5435C20.8121 23.5068 20.8134 23.4652 20.8339 23.3556L20.8347 23.3564Z" fill="white"/>
<path d="M9.74404 27.4658C9.55443 27.4407 9.43705 27.5261 9.31061 27.5734C8.60813 27.8365 7.88187 27.9864 7.13565 28.036C6.686 28.0661 6.52381 27.91 6.57571 27.4539C6.66429 26.6724 6.8345 25.906 7.06841 25.1536C7.10457 25.0368 7.13921 24.9191 7.175 24.8011C7.05602 24.7648 6.97455 24.8363 6.88256 24.8446C6.65543 24.8661 6.46562 24.7666 6.40956 24.5988C6.34856 24.4177 6.41376 24.1371 6.5781 24.0412C7.03444 23.7752 7.52721 23.5939 8.04645 23.5056C8.29844 23.463 8.59408 23.8221 8.53961 24.0875C8.50677 24.2475 8.43883 24.4022 8.3732 24.5531C8.05346 25.2886 7.86223 26.0668 7.60274 26.8227C7.58506 26.8747 7.575 26.9297 7.62099 27.0024C7.81716 27.0027 8.00324 26.9141 8.19307 26.8491C8.9486 26.5885 9.70072 26.3183 10.4581 26.0627C10.9272 25.9043 11.1134 26.0568 11.047 26.5451C10.9774 27.054 10.8098 27.5376 10.5709 27.9912C10.4125 28.2919 10.1528 28.3574 9.8807 28.2177C9.70766 28.1288 9.64309 28.0061 9.69012 27.8151C9.71595 27.7101 9.72424 27.6006 9.74442 27.4647L9.74404 27.4658Z" fill="white"/>
<path d="M21.199 13.636C21.9717 14.4454 22.108 15.6789 21.0555 16.7299C20.1996 17.585 18.8017 17.5552 17.98 16.6776C17.0345 15.6679 17.326 14.3058 18.0471 13.6228C18.9258 12.7898 20.2881 12.6967 21.1994 13.6363L21.199 13.636ZM20.3546 14.3494C19.8696 13.8621 19.2334 13.8633 18.7506 14.353C18.288 14.8217 18.2791 15.4793 18.7291 15.9354C19.1535 16.3659 19.9733 16.3639 20.4113 15.9304C20.8486 15.4985 20.8244 14.8215 20.3546 14.3494Z" fill="white"/>
<path d="M15.8142 18.1521C15.8724 18.0939 15.9305 18.0358 15.9887 17.9776C16.4095 17.5629 16.7531 17.8238 16.9923 18.1793C17.0668 18.2898 17.0147 18.3907 16.9518 18.4832C16.789 18.7229 16.5893 18.9317 16.3618 19.109C16.0953 19.3161 15.8656 19.2869 15.6414 19.0413C15.402 18.7798 15.4021 18.5992 15.6432 18.33C15.6979 18.2691 15.7591 18.2133 15.8173 18.1551L15.815 18.1528L15.8142 18.1521Z" fill="white"/>
<path d="M14.6004 20.8783C14.5652 20.9105 14.4876 20.9889 14.4023 21.0582C14.0845 21.3143 13.9818 21.3249 13.7648 21.1315C13.4521 20.8533 13.416 20.6664 13.6171 20.348C13.7367 20.1584 13.8943 20.0069 14.0816 19.8851C14.2746 19.759 14.4632 19.7609 14.6598 19.8848C15.037 20.1235 15.073 20.3929 14.7619 20.7176C14.7236 20.7574 14.6838 20.7957 14.6008 20.8787L14.6004 20.8783Z" fill="white"/>
</svg>
