<svg width="30" height="30" viewBox="0 0 30 30" fill="none" xmlns="http://www.w3.org/2000/svg">
<g clip-path="url(#clip0_958_469)">
<path d="M10.854 8.22055L21.8067 19.4296C22.2087 19.841 22.3681 20.3764 22.2574 20.9409C22.1462 21.5053 21.7958 21.9403 21.2683 22.1692L3.52557 29.8553C2.88239 30.1338 2.17426 30.0044 1.67182 29.5163L0.582803 28.4592C0.0641277 27.9558 -0.0790738 27.2196 0.212742 26.5587L8.09129 8.72003C8.32553 8.18955 8.76892 7.84016 9.33976 7.73731C9.91059 7.63397 10.4485 7.80571 10.8535 8.22055H10.854ZM7.79997 13.5756L16.7237 22.2912L20.5946 20.6141L9.64191 9.40504L7.79997 13.5756ZM15.0437 23.019L7.0687 15.2305L1.76336 27.2432L2.85238 28.3003L15.0437 23.019ZM12.0827 2.25283C11.8003 2.47969 11.5148 2.9088 11.3874 3.24097C11.0272 4.17793 11.4543 5.04502 12.0778 5.75512C12.3421 6.0553 12.312 6.51591 12.0114 6.77968C11.7112 7.04393 11.2506 7.01392 10.9868 6.71324C9.99769 5.58682 9.47213 4.17793 10.0312 2.72181C10.2511 2.149 10.6891 1.50927 11.1738 1.12001C11.4858 0.869534 11.9444 0.919728 12.1949 1.23172C12.4454 1.54371 12.3952 2.00235 12.0832 2.25283H12.0827ZM15.4659 2.30253C15.0526 2.70606 14.6613 3.38467 14.4847 3.92549C14.03 5.31518 14.5531 6.5105 15.5417 7.5193C15.8217 7.80472 15.8173 8.26632 15.5314 8.54632C15.246 8.82633 14.7844 8.8219 14.5044 8.53599C13.1329 7.13694 12.4794 5.39047 13.1024 3.47915C13.3514 2.71492 13.8686 1.83061 14.4517 1.26272C14.7381 0.98321 15.1992 0.989115 15.4787 1.27552C15.7582 1.56192 15.7523 2.02302 15.4659 2.30253ZM18.8811 0.119571C20.1227 0.93646 20.5646 2.65045 20.3869 4.05196C20.1375 6.02233 17.9609 8.56256 16.5471 9.90009C16.2572 10.1757 15.7961 10.1634 15.5206 9.87303C15.2455 9.58269 15.2573 9.12159 15.5471 8.84601C16.6612 7.78848 18.7482 5.42541 18.9456 3.86939C19.0504 3.03872 18.8408 1.83356 18.081 1.33211C17.7473 1.11165 17.6548 0.659899 17.8748 0.325762C18.0952 -0.00788334 18.547 -0.100398 18.8806 0.119571H18.8811ZM18.7345 12.2912C20.0499 10.779 24.5255 5.77825 26.2316 5.30977C27.2808 5.02189 28.6725 5.11096 29.5769 5.77776C29.8988 6.01495 29.9682 6.47113 29.7305 6.79345C29.4933 7.11529 29.0396 7.18615 28.7177 6.94896C28.1558 6.55331 27.2513 6.53609 26.616 6.71029C25.4148 7.04 20.8382 12.087 19.8299 13.2444C19.5676 13.5461 19.1075 13.5781 18.8053 13.3158C18.5037 13.0535 18.4717 12.5934 18.734 12.2912H18.7345ZM24.8887 13.0333C25.1121 12.4945 25.5471 11.9266 26.0328 11.6067C27.3349 10.75 28.6488 11.5604 29.5578 12.5702C29.8255 12.8675 29.8009 13.3286 29.5036 13.5958C29.2064 13.8635 28.7453 13.8389 28.4781 13.5416C27.6455 12.6165 26.7794 12.2755 26.2292 13.5923C26.0752 13.9614 25.648 14.1366 25.2789 13.9826C24.9099 13.8285 24.7347 13.4014 24.8882 13.0333H24.8887ZM23.156 16.7944C24.7922 17.8087 27.3187 18.351 28.6208 16.5395C28.854 16.2147 29.3097 16.1404 29.6345 16.3737C29.9593 16.6069 30.0336 17.0626 29.8004 17.3874C28.0175 19.8676 24.6992 19.4606 22.3908 18.0291C22.0507 17.818 21.9454 17.3692 22.1561 17.0292C22.3667 16.6891 22.816 16.5838 23.156 16.7944Z" fill="#353535"/>
</g>
<defs>
<clipPath id="clip0_958_469">
<rect width="30" height="30" fill="white"/>
</clipPath>
</defs>
</svg>
