<svg width="32" height="33" viewBox="0 0 32 33" fill="none" xmlns="http://www.w3.org/2000/svg">
<path d="M25.2477 22.8168C25.1388 22.9411 25.0514 23.0521 24.9523 23.1514C24.0687 24.0341 23.1815 24.9132 22.2979 25.7959C20.5166 27.5747 18.7372 29.3548 16.9559 31.1342C16.7046 31.3854 16.4466 31.6299 16.2008 31.8865C16.0436 32.0505 15.9238 32.0285 15.7703 31.8743C14.0355 30.1339 12.2977 28.3965 10.558 26.6603C9.40779 25.5131 8.25392 24.3694 7.10189 23.2246C7.06581 23.1886 7.03096 23.1514 6.99182 23.1191C6.76618 22.9283 6.73683 22.7747 6.98204 22.5376C7.98915 21.5652 8.97364 20.5697 9.96241 19.5785C10.0982 19.4426 10.1972 19.4645 10.3201 19.5877C11.4648 20.738 12.612 21.8859 13.7591 23.0338C14.4262 23.7007 15.097 24.3639 15.7623 25.0327C15.9317 25.2028 16.0687 25.1766 16.2283 25.0162C17.4543 23.786 18.684 22.5601 19.9131 21.3336C20.4952 20.7526 21.0829 20.1772 21.6583 19.5895C21.8044 19.4401 21.8992 19.4609 22.0331 19.595C23.0457 20.6088 24.0632 21.6183 25.0783 22.6302C25.1333 22.6839 25.1822 22.7442 25.2477 22.8168Z" fill="#353535" stroke="#AE8DFF" stroke-width="1.5"/>
<path d="M21.8327 14.6439C21.5104 14.3287 21.1973 14.0282 20.8898 13.7228C19.7175 12.5566 18.5466 11.3892 17.3762 10.2218C17.0105 9.85723 16.6479 9.48964 16.2835 9.12448C16.045 8.88491 15.9367 8.88186 15.7038 9.11412C13.9115 10.8984 12.118 12.6809 10.3331 14.472C10.1772 14.6286 10.0903 14.6262 9.94359 14.4787C8.94014 13.4716 7.93609 12.4639 6.91858 11.4709C6.6856 11.2435 6.84153 11.1197 6.98401 10.9771C8.0327 9.92794 9.08384 8.88125 10.1344 7.83333C11.3494 6.62082 12.565 5.40831 13.78 4.1952C14.4985 3.4783 15.2158 2.76079 15.9765 2C16.2786 2.29444 16.5678 2.57181 16.8515 2.85406C18.1473 4.14155 19.4418 5.42965 20.7351 6.71958C22.0632 8.04365 23.3889 9.37015 24.7164 10.6954C25.2625 11.2404 25.2661 11.2429 24.7378 11.7751C23.9001 12.6188 23.0575 13.4582 22.2155 14.2976C22.1011 14.4116 21.9764 14.5146 21.8327 14.6439Z" fill="#353535" stroke="#AE8DFF" stroke-width="1.5"/>
<path d="M19.3977 16.9812C18.2316 18.1583 17.0991 19.3013 15.9189 20.4925C15.3252 19.8841 14.7259 19.2635 14.1206 18.6497C13.6638 18.187 13.2015 17.7298 12.7362 17.275C12.5656 17.1086 12.5472 16.9909 12.7386 16.8032C13.7671 15.7961 14.781 14.7732 15.796 13.7521C15.9165 13.6308 16.0168 13.5856 16.1525 13.7222C17.2336 14.8103 18.3166 15.8973 19.3983 16.9854C19.4117 16.9988 19.4136 17.0226 19.3977 16.9812Z" fill="#353535" stroke="#AE8DFF" stroke-width="1.5"/>
<path d="M27.5438 20.4929C27.2215 20.1302 26.9127 19.7541 26.574 19.4066C25.8665 18.6818 25.148 17.9667 24.4221 17.2596C24.2583 17.0999 24.2558 17.006 24.4185 16.8451C25.428 15.8459 26.4278 14.8364 27.4325 13.8318C27.4949 13.7696 27.5701 13.719 27.7052 13.6099C28.3772 14.3042 29.0358 14.9906 29.7011 15.6697C30.0827 16.0587 30.474 16.4384 30.8654 16.8182C30.9883 16.9377 31.0671 17.0523 30.9185 17.2029C29.8497 18.2837 28.7802 19.3639 27.7113 20.4442C27.6551 20.46 27.5994 20.4765 27.5438 20.4929Z" fill="#353535" stroke="#AE8DFF" stroke-width="1.5"/>
<path d="M4.3165 13.6252C4.6198 13.9142 4.90169 14.1733 5.17258 14.4433C5.96812 15.2377 6.75754 16.0381 7.55369 16.8318C7.68944 16.9671 7.74448 17.0744 7.58182 17.2347C6.56126 18.2369 5.5468 19.2452 4.52991 20.2511C4.47365 20.3065 4.41067 20.3559 4.32078 20.4333C4.05295 20.1718 3.79185 19.9213 3.53563 19.6665C2.74376 18.8807 1.9574 18.0888 1.15941 17.3091C0.971683 17.1256 0.931325 16.9964 1.13862 16.7928C2.19404 15.754 3.23784 14.703 4.3165 13.6252Z" fill="#353535" stroke="#AE8DFF" stroke-width="1.5"/>
</svg>
