<svg width="34" height="34" viewBox="0 0 34 34" fill="none" xmlns="http://www.w3.org/2000/svg">
<path d="M26.2475 22.8169C26.1387 22.9412 26.0513 23.0522 25.9522 23.1516C25.0686 24.0343 24.1813 24.9133 23.2977 25.796C21.5165 27.5749 19.7371 29.3549 17.9558 31.1344C17.7045 31.3855 17.4465 31.63 17.2006 31.8866C17.0435 32.0506 16.9236 32.0287 16.7702 31.8744C15.0354 30.134 13.2975 28.3966 11.5579 26.6605C10.4077 25.5132 9.2538 24.3696 8.10177 23.2247C8.06569 23.1887 8.03083 23.1516 7.9917 23.1193C7.76606 22.9284 7.73671 22.7748 7.98191 22.5377C8.98903 21.5654 9.97352 20.5699 10.9623 19.5786C11.098 19.4427 11.1971 19.4647 11.32 19.5878C12.4647 20.7381 13.6118 21.886 14.759 23.0339C15.4261 23.7008 16.0969 24.3641 16.7622 25.0328C16.9316 25.2029 17.0686 25.1767 17.2282 25.0163C18.4542 23.7862 19.6839 22.5602 20.913 21.3337C21.4951 20.7528 22.0827 20.1773 22.6581 19.5896C22.8043 19.4403 22.8991 19.461 23.033 19.5951C24.0456 20.6089 25.0631 21.6184 26.0782 22.6303C26.1332 22.684 26.1821 22.7443 26.2475 22.8169Z" fill="#353535" stroke="#CDFF71" stroke-width="2.5"/>
<path d="M22.8324 14.6439C22.5102 14.3287 22.1971 14.0282 21.8895 13.7228C20.7173 12.5566 19.5463 11.3892 18.3759 10.2218C18.0103 9.85723 17.6476 9.48964 17.2832 9.12448C17.0447 8.88491 16.9365 8.88186 16.7035 9.11412C14.9113 10.8984 13.1178 12.6809 11.3329 14.472C11.1769 14.6286 11.0901 14.6262 10.9433 14.4787C9.9399 13.4716 8.93584 12.4639 7.91833 11.4709C7.68536 11.2435 7.84129 11.1197 7.98376 10.9771C9.03246 9.92794 10.0836 8.88125 11.1341 7.83333C12.3491 6.62082 13.5648 5.40831 14.7798 4.1952C15.4983 3.4783 16.2156 2.76079 16.9762 2C17.2783 2.29444 17.5675 2.57181 17.8513 2.85406C19.147 4.14155 20.4415 5.42965 21.7348 6.71958C23.0629 8.04365 24.3886 9.37015 25.7162 10.6954C26.2622 11.2404 26.2659 11.2429 25.7376 11.7751C24.8998 12.6188 24.0572 13.4582 23.2152 14.2976C23.1009 14.4116 22.9761 14.5146 22.8324 14.6439Z" fill="#353535" stroke="#CDFF71" stroke-width="2.5"/>
<path d="M20.3975 16.9812C19.2314 18.1583 18.099 19.3013 16.9188 20.4925C16.3251 19.8841 15.7258 19.2635 15.1204 18.6497C14.6637 18.187 14.2014 17.7298 13.736 17.275C13.5654 17.1086 13.5471 16.9909 13.7385 16.8032C14.767 15.7961 15.7808 14.7732 16.7959 13.7521C16.9164 13.6308 17.0166 13.5856 17.1524 13.7222C18.2335 14.8103 19.3164 15.8973 20.3981 16.9854C20.4116 16.9988 20.4134 17.0226 20.3975 16.9812Z" fill="#353535" stroke="#CDFF71" stroke-width="2.5"/>
<path d="M28.5437 20.4931C28.2215 20.1303 27.9127 19.7542 27.5739 19.4067C26.8664 18.6819 26.1479 17.9669 25.4221 17.2597C25.2582 17.1 25.2558 17.0061 25.4184 16.8452C26.428 15.846 27.4278 14.8365 28.4324 13.8319C28.4948 13.7697 28.57 13.7191 28.7051 13.61C29.3772 14.3043 30.0357 14.9907 30.701 15.6698C31.0826 16.0588 31.4739 16.4386 31.8653 16.8183C31.9882 16.9378 32.0671 17.0524 31.9185 17.203C30.8496 18.2838 29.7801 19.3641 28.7113 20.4443C28.655 20.4601 28.5994 20.4766 28.5437 20.4931Z" fill="#353535" stroke="#CDFF71" stroke-width="2.5"/>
<path d="M5.3165 13.6252C5.6198 13.9142 5.90169 14.1733 6.17258 14.4433C6.96812 15.2377 7.75754 16.0381 8.55369 16.8318C8.68944 16.9671 8.74448 17.0744 8.58182 17.2347C7.56126 18.2369 6.5468 19.2452 5.52991 20.2511C5.47365 20.3065 5.41067 20.3559 5.32078 20.4333C5.05295 20.1718 4.79185 19.9213 4.53563 19.6665C3.74376 18.8807 2.9574 18.0888 2.15941 17.3091C1.97168 17.1256 1.93133 16.9964 2.13862 16.7928C3.19404 15.754 4.23784 14.703 5.3165 13.6252Z" fill="#353535" stroke="#CDFF71" stroke-width="2.5"/>
</svg>
