<svg width="26" height="26" viewBox="0 0 26 26" fill="none" xmlns="http://www.w3.org/2000/svg">
<path d="M13.502 0.0498047C15.6358 0.0498047 17.5635 1.3176 18.417 3.21875L18.4297 3.24902H25.3672C25.4812 3.24903 25.5998 3.30554 25.6963 3.39551C25.7914 3.48436 25.8598 3.601 25.8799 3.71484V20.7695C25.8799 21.0397 25.6431 21.2744 25.3672 21.2744H15.0479V24.5723H16.1768C16.4481 24.5724 16.6855 24.8068 16.6855 25.0771C16.6855 25.3477 16.4521 25.5819 16.1768 25.582H9.70703C9.43561 25.582 9.19824 25.3476 9.19824 25.0771C9.19824 24.8065 9.4316 24.5723 9.70703 24.5723H10.8779V21.3164H0.558594C0.287273 21.3163 0.0499039 21.0828 0.0498047 20.8125V3.75293L0.0605469 3.65332C0.10908 3.42743 0.317741 3.24907 0.558594 3.24902H8.5752L8.58789 3.21875C9.44134 1.31774 11.3683 0.049992 13.502 0.0498047ZM11.8145 24.5723H14.0723V21.2744H11.8145V24.5723ZM1.0293 20.3076H24.8584V18.0752H1.0293V20.3076ZM1.0293 17.1094H24.8115V4.21484H18.6611L18.6738 4.27539C19.3578 7.56972 16.794 10.6122 13.46 10.6123C10.1258 10.6123 7.5621 7.56981 8.24609 4.27539L8.25879 4.21484H1.0293V17.1094ZM13.502 1.0166C11.1039 1.01686 9.13672 2.95736 9.13672 5.33105C9.13673 7.7047 11.0996 9.64525 13.502 9.64551C15.9042 9.64551 17.8681 7.74783 17.8682 5.33105C17.8682 2.91424 15.8999 1.0166 13.502 1.0166Z" fill="white" stroke="white" stroke-width="0.1"/>
<path d="M15.2324 2.96484C15.3317 2.767 15.5817 2.68063 15.8018 2.7666L15.8936 2.81445L15.8984 2.81738C16.0968 2.91655 16.183 3.16284 16.0977 3.37891L16.0498 3.46973V3.4707L13.333 7.73535L13.3311 7.7373C13.1975 7.97094 12.9146 8.03257 12.6855 7.88672L12.5908 7.81152L10.9961 6.23438V6.2334L10.9316 6.15625C10.8204 5.99202 10.8204 5.77948 10.9316 5.61523L10.9961 5.53711C11.1654 5.36776 11.4275 5.34611 11.623 5.47363L11.7021 5.53711L12.8232 6.64648L12.8682 6.68945L12.9014 6.6377L15.2295 2.96973L15.2324 2.96484Z" fill="white" stroke="white" stroke-width="0.1"/>
</svg>
