<svg width="30" height="28" viewBox="0 0 30 28" fill="none" xmlns="http://www.w3.org/2000/svg">
<path d="M21.1162 9.87511C21.6568 8.91469 21.9634 7.7983 21.9634 6.60803C21.9634 2.96335 19.0506 0 15.468 0C11.8854 0 8.97257 2.96335 8.97257 6.60803C8.97257 7.7983 9.27918 8.90648 9.8198 9.87511H1.99301L0 15.3996L0.935987 28H29.185L30 15.3668L27.4664 9.87511H21.1162ZM9.7149 6.60803C9.7149 3.382 12.2969 0.755204 15.468 0.755204C16.7348 0.755204 17.9048 1.17385 18.8488 1.8798C18.9215 1.93726 18.9941 1.98651 19.0667 2.04398C19.6073 2.48725 20.0672 3.02902 20.4223 3.63647C20.9306 4.5066 21.2211 5.52448 21.2211 6.60803C21.2211 6.81325 21.213 7.01026 21.1888 7.20727C21.1323 7.7983 20.9871 8.3647 20.7692 8.88185C20.3335 9.93257 19.5992 10.8273 18.6875 11.4594C17.7676 12.0915 16.6622 12.4609 15.4761 12.4609C12.2969 12.4609 9.7149 9.84227 9.7149 6.60803ZM16.8558 13.0683H24.6261V14.4227H5.37386V13.0683H14.0802C14.1044 13.0765 14.1366 13.0765 14.1608 13.0847C14.5724 13.175 15 13.2161 15.4438 13.2243C15.4519 13.2243 15.4599 13.2243 15.4761 13.2243C15.9441 13.2243 16.412 13.1668 16.8558 13.0683ZM28.1361 26.859H1.97687L1.22647 16.754H28.7977L28.1361 26.859ZM28.8542 15.8018L28.8462 15.9496H1.16192L1.15385 15.8018L1.13771 15.5556L2.77569 11.0079H10.6267C10.7235 11.1146 10.8203 11.2131 10.9172 11.3116C11.4094 11.8042 11.9661 12.2228 12.5955 12.5347H4.84938V14.9563H25.1587V12.5347H18.3486C19.099 12.1571 19.7606 11.64 20.3174 11.0079H26.7644L28.8704 15.5802L28.8542 15.8018Z" fill="#272525"/>
<path d="M13.6085 10.1164V2.95238H17.8309V3.72195H14.4612V6.14259H17.5145V6.91216H14.4612V10.1164H13.6085Z" fill="black"/>
</svg>
