<svg width="22" height="22" viewBox="0 0 22 22" fill="none" xmlns="http://www.w3.org/2000/svg">
<path d="M10.9796 -6.10352e-05C4.91654 -6.10352e-05 0 4.99939 0 11.167C0 16.101 3.146 20.287 7.50855 21.7636C8.05727 21.867 8.25873 21.5214 8.25873 21.2264C8.25873 20.9601 8.24855 20.0804 8.24382 19.1473C5.18927 19.8228 4.54473 17.8297 4.54473 17.8297C4.04527 16.5389 3.32564 16.1957 3.32564 16.1957C2.32945 15.5026 3.40073 15.5168 3.40073 15.5168C4.50327 15.5954 5.08382 16.6676 5.08382 16.6676C6.06309 18.3749 7.65236 17.8813 8.27891 17.596C8.37745 16.8744 8.662 16.3814 8.976 16.1027C6.53727 15.8203 3.97364 14.8628 3.97364 10.5838C3.97364 9.36456 4.40255 8.36836 5.10491 7.58632C4.99091 7.30486 4.61509 6.16923 5.21127 4.63102C5.21127 4.63102 6.13327 4.33089 8.23145 5.77571C9.10727 5.52828 10.0465 5.4042 10.9796 5.39994C11.9127 5.4042 12.8527 5.52828 13.7302 5.77571C15.8258 4.33089 16.7465 4.63102 16.7465 4.63102C17.3442 6.16923 16.9682 7.30486 16.8542 7.58632C17.5582 8.36836 17.9842 9.36456 17.9842 10.5838C17.9842 14.8729 15.4156 15.8173 12.9707 16.0938C13.3645 16.4404 13.7155 17.12 13.7155 18.1618C13.7155 19.6558 13.7027 20.8584 13.7027 21.2264C13.7027 21.5236 13.9004 21.8718 14.4569 21.7621C18.8171 20.2838 21.9591 16.0994 21.9591 11.167C21.9591 4.99939 17.0433 -6.10352e-05 10.9796 -6.10352e-05Z" fill="#090909"/>
<path d="M4.15855 16.0335C4.13436 16.0892 4.04855 16.1056 3.97036 16.0675C3.89073 16.0311 3.846 15.9555 3.87182 15.8998C3.89545 15.8427 3.98145 15.827 4.06091 15.8649C4.14073 15.9015 4.18618 15.9779 4.15855 16.0335Z" fill="#090909"/>
<path d="M4.60327 16.538C4.55091 16.5874 4.44855 16.5644 4.37909 16.4864C4.30727 16.4085 4.29382 16.3044 4.34691 16.2543C4.40091 16.2049 4.50018 16.2281 4.57218 16.3059C4.644 16.3847 4.658 16.4881 4.60327 16.538Z" fill="#090909"/>
<path d="M5.03618 17.1812C4.96891 17.2287 4.85891 17.1841 4.79091 17.0848C4.72364 16.9855 4.72364 16.8664 4.79236 16.8187C4.86055 16.771 4.96891 16.8139 5.03782 16.9125C5.10491 17.0133 5.10491 17.1325 5.03618 17.1812Z" fill="#090909"/>
<path d="M5.62927 17.8025C5.56909 17.87 5.44091 17.8519 5.34709 17.7598C5.25109 17.6697 5.22436 17.542 5.28473 17.4745C5.34564 17.4068 5.47455 17.4258 5.56909 17.5172C5.66436 17.607 5.69345 17.7358 5.62927 17.8025Z" fill="#090909"/>
<path d="M6.44745 18.1633C6.42091 18.2508 6.29745 18.2905 6.17309 18.2534C6.04891 18.2151 5.96764 18.1126 5.99273 18.0242C6.01855 17.9362 6.14255 17.8948 6.26782 17.9345C6.39182 17.9726 6.47327 18.0744 6.44745 18.1633Z" fill="#090909"/>
<path d="M7.346 18.2302C7.34909 18.3223 7.24364 18.3987 7.11309 18.4002C6.98182 18.4033 6.87564 18.3288 6.87418 18.2382C6.87418 18.1452 6.97727 18.0695 7.10855 18.0673C7.23909 18.0647 7.346 18.1387 7.346 18.2302Z" fill="#090909"/>
<path d="M8.18218 18.0854C8.19782 18.1753 8.10709 18.2676 7.97746 18.292C7.85 18.3159 7.732 18.2604 7.71582 18.1713C7.7 18.0792 7.79236 17.9869 7.91964 17.963C8.04945 17.9401 8.16564 17.9941 8.18218 18.0854Z" fill="#090909"/>
</svg>
