<svg width="155" height="81" viewBox="0 0 155 81" fill="none" xmlns="http://www.w3.org/2000/svg">
<path d="M129.603 41.1357C128.439 41.1357 127.381 40.9332 126.43 40.5281C125.479 40.1229 124.722 39.5538 124.16 38.8207C123.888 38.4543 123.752 38.1167 123.752 37.8079C123.752 37.4029 123.975 37.0653 124.422 36.7953C124.693 36.6216 124.955 36.5348 125.207 36.5348C125.615 36.5348 126.003 36.7759 126.372 37.2583C127.168 38.242 128.245 38.734 129.603 38.734C131.253 38.734 132.078 38.1745 132.078 37.0556C132.078 36.0333 131.505 35.522 130.36 35.522H128.73C128.322 35.522 128.002 35.4255 127.769 35.2327C127.536 35.0205 127.42 34.7311 127.42 34.3646C127.42 33.5543 127.857 33.1491 128.73 33.1491H130.36C130.787 33.1491 131.127 33.043 131.379 32.8308C131.651 32.5994 131.786 32.2715 131.786 31.847C131.786 30.9017 131.039 30.4292 129.545 30.4292C128.536 30.4292 127.653 30.786 126.896 31.4998C126.43 31.9241 125.994 32.1363 125.586 32.1363C125.314 32.1363 125.091 32.0591 124.916 31.9049C124.528 31.6348 124.334 31.2973 124.334 30.8921C124.334 30.5448 124.48 30.2265 124.771 29.9372C125.334 29.3392 126.042 28.8762 126.896 28.5483C127.75 28.2009 128.701 28.0273 129.749 28.0273C131.418 28.0273 132.708 28.365 133.62 29.0401C134.533 29.7153 134.989 30.5834 134.989 31.6445C134.989 32.1846 134.833 32.6862 134.523 33.1491C134.212 33.6122 133.737 33.9786 133.096 34.2488V34.3066C133.853 34.5768 134.406 34.9819 134.756 35.522C135.125 36.0622 135.309 36.6698 135.309 37.345C135.309 38.5025 134.795 39.4285 133.766 40.1229C132.757 40.7982 131.369 41.1357 129.603 41.1357Z" fill="#353535"/>
<path d="M112.995 52.8262C112.49 52.8262 112.093 52.6912 111.801 52.4211C111.51 52.1511 111.365 51.7748 111.365 51.2925V39.6021C111.365 39.1197 111.501 38.7437 111.772 38.4735C112.063 38.2034 112.452 38.0684 112.937 38.0684C113.441 38.0684 113.829 38.2034 114.101 38.4735C114.392 38.7437 114.538 39.1197 114.538 39.6021V40.8174C115.799 39.1777 117.459 38.3577 119.516 38.3577H120.185C120.709 38.3577 121.117 38.4735 121.408 38.7051C121.718 38.9365 121.874 39.2547 121.874 39.6599C121.874 40.0843 121.718 40.4122 121.408 40.6438C121.117 40.856 120.709 40.9621 120.185 40.9621H119.254C117.837 40.9621 116.711 41.3961 115.877 42.2642C115.042 43.1131 114.625 44.2801 114.625 45.7656V51.2925C114.625 51.7556 114.47 52.1317 114.159 52.4211C113.868 52.6912 113.48 52.8262 112.995 52.8262Z" fill="#353535"/>
<path d="M106.07 35.8403C105.449 35.8403 104.935 35.6667 104.528 35.3194C104.139 34.9528 103.945 34.4898 103.945 33.9305C103.945 33.3709 104.139 32.9177 104.528 32.5703C104.935 32.2038 105.449 32.0205 106.07 32.0205C106.691 32.0205 107.206 32.2038 107.613 32.5703C108.021 32.9177 108.224 33.3709 108.224 33.9305C108.224 34.4898 108.021 34.9528 107.613 35.3194C107.206 35.6667 106.691 35.8403 106.07 35.8403ZM106.07 52.8262C105.566 52.8262 105.168 52.6912 104.877 52.4211C104.605 52.1511 104.469 51.7748 104.469 51.2925V39.6021C104.469 39.1197 104.605 38.7435 104.877 38.4735C105.168 38.2034 105.566 38.0684 106.07 38.0684C106.575 38.0684 106.973 38.2034 107.264 38.4735C107.574 38.7435 107.73 39.1197 107.73 39.6021V51.2925C107.73 51.7748 107.574 52.1511 107.264 52.4211C106.973 52.6912 106.575 52.8262 106.07 52.8262Z" fill="#353535"/>
<path d="M92.6207 52.8262C90.7771 52.8262 89.3021 52.3922 88.196 51.524C87.0898 50.6559 86.5366 49.4985 86.5366 48.0516C86.5366 46.6241 87.1188 45.4859 88.2833 44.6371C89.4672 43.7882 91.0585 43.3639 93.0574 43.3639C94.9982 43.3639 96.5118 43.8075 97.5986 44.695V43.5953C97.5986 42.6308 97.2882 41.8977 96.6671 41.3961C96.0654 40.8753 95.1728 40.6149 93.9889 40.6149C92.3199 40.6149 90.8839 40.9814 89.6806 41.7144C89.273 41.9459 88.9043 42.0617 88.5744 42.0617C88.2251 42.0617 87.9049 41.9073 87.6138 41.5988C87.4197 41.3864 87.3227 41.1356 87.3227 40.8463C87.3227 40.3833 87.5264 40.0168 87.934 39.7468C88.6327 39.2258 89.5156 38.8207 90.583 38.5313C91.6504 38.2227 92.7663 38.0684 93.9307 38.0684C96.1237 38.0684 97.8411 38.5604 99.0832 39.5441C100.325 40.528 100.946 41.8881 100.946 43.6243V51.3794C100.946 51.8231 100.801 52.18 100.51 52.45C100.219 52.7009 99.8207 52.8262 99.3162 52.8262C98.8116 52.8262 98.4138 52.7009 98.1227 52.45C97.8509 52.1992 97.7151 51.852 97.7151 51.4083V50.8584C96.57 52.1703 94.8719 52.8262 92.6207 52.8262ZM93.3194 50.4534C94.6391 50.4534 95.6871 50.2412 96.4633 49.8167C97.2396 49.3731 97.6277 48.775 97.6277 48.0227C97.6277 47.2896 97.2493 46.7109 96.4925 46.2865C95.7355 45.8621 94.6973 45.6499 93.3776 45.6499C92.2327 45.6499 91.3399 45.8621 90.6995 46.2865C90.0784 46.7109 89.7679 47.2993 89.7679 48.0516C89.7679 48.8233 90.0687 49.4213 90.6704 49.8456C91.2914 50.2508 92.1743 50.4534 93.3194 50.4534Z" fill="#353535"/>
<path d="M73.3728 52.826C72.8683 52.826 72.4704 52.691 72.1793 52.4209C71.8882 52.1509 71.7427 51.7746 71.7427 51.2923V36.303C71.7427 35.0491 72.1114 34.0653 72.8489 33.3515C73.5863 32.6376 74.6149 32.2808 75.9346 32.2808H84.9879C85.4925 32.2808 85.8806 32.3965 86.1524 32.6281C86.424 32.8403 86.5599 33.1586 86.5599 33.5829C86.5599 33.9881 86.424 34.3063 86.1524 34.5379C85.8806 34.7501 85.4925 34.8562 84.9879 34.8562H76.4004C75.9734 34.8562 75.6435 34.9912 75.4106 35.2613C75.1778 35.5313 75.0613 35.8979 75.0613 36.3608V41.1934H82.7756C83.2801 41.1934 83.6682 41.3092 83.94 41.5406C84.2116 41.7528 84.3474 42.0712 84.3474 42.4956C84.3474 42.9007 84.2116 43.219 83.94 43.4504C83.6682 43.6626 83.2801 43.7688 82.7756 43.7688H75.0613V51.2923C75.0613 51.7554 74.906 52.1315 74.5956 52.4209C74.285 52.691 73.8774 52.826 73.3728 52.826Z" fill="#353535"/>
<path fill-rule="evenodd" clip-rule="evenodd" d="M55.4524 36.3773C56.6728 38.1934 57.8955 40.0095 59.1157 41.8279C59.1981 41.9517 59.2452 42.0991 59.2452 42.258C59.2452 42.6904 58.8947 43.041 58.4621 43.0457H56.4423C55.8992 43.0457 55.4548 43.4873 55.4548 44.0273V50.0809C55.4548 51.9226 53.9383 53.4302 52.0854 53.4302H46.8655C46.6351 53.4302 46.407 53.4162 46.1837 53.3858V64.848H46.1766C46.1555 65.2172 46.0238 65.5842 45.7745 65.895C45.1326 66.7038 43.9523 66.8416 43.1388 66.2036L23.1551 50.525C22.6826 50.1534 22.438 49.6018 22.4427 49.0455H22.438V26.8972C22.438 25.0554 23.9546 23.5479 25.8074 23.5479H52.0854C53.9383 23.5479 55.4548 25.0554 55.4548 26.8972V36.3773H55.4524ZM55.8945 41.503C56.1979 41.482 56.4352 41.2318 56.4352 40.9257C56.4352 40.8135 56.4023 40.7084 56.3483 40.6195L54.0816 37.2468C53.9759 37.0948 53.7995 36.9944 53.602 36.9944H42.1348C41.9349 36.9944 41.7609 37.0926 41.655 37.2445L39.1133 41.0286C38.9158 41.3137 38.5843 41.5006 38.2105 41.5006H36.2166C35.0997 41.5006 34.1851 42.4098 34.1851 43.5201C34.1851 44.6303 35.0997 45.5395 36.2166 45.5395H36.7268C37.2206 45.5395 37.6227 45.9416 37.6227 46.4301V56.8427C37.6227 57.0227 37.7073 57.1816 37.8366 57.2868L37.8531 57.3008L43.3175 61.5898C43.4139 61.6598 43.5338 61.7019 43.6607 61.7019C43.9828 61.7019 44.2415 61.4448 44.2438 61.1247V52.7244C43.0306 52.0185 42.1254 50.8428 41.7891 49.4498C41.7656 49.354 41.728 49.1951 41.728 49.0969C41.728 48.7416 42.0171 48.4542 42.3745 48.4542C42.5509 48.4542 42.7108 48.522 42.8354 48.6458C42.9154 48.7252 43.0213 48.8561 43.094 48.9333C43.6655 49.5293 44.385 49.9898 45.1656 50.2585C45.711 50.4456 46.2824 50.5414 46.8608 50.5414H52.29C53.1529 50.5414 53.8606 49.8378 53.8606 48.9801V46.2945L51.3918 44.9552C51.0108 44.7776 51.1378 44.2073 51.5634 44.2073H52.873C53.4163 44.2073 53.8606 43.7656 53.8606 43.2256V42.3936C53.8606 41.9004 54.2651 41.5006 54.7565 41.5006H55.8945V41.503ZM38.4597 37.7049C38.2716 37.9995 37.9448 38.1981 37.5709 38.2097H31.1542C30.6605 38.2097 30.2584 38.6118 30.2584 39.1003V50.1511C30.2584 50.4689 29.9974 50.7283 29.6753 50.7283C29.5484 50.7283 29.4307 50.6886 29.3343 50.6184L26.5316 48.4191C26.381 48.3139 26.2846 48.1409 26.2846 47.9445V27.8976C26.2846 27.3576 26.7291 26.916 27.2722 26.916H52.4029C52.946 26.916 53.3905 27.3576 53.3905 27.8976V29.3257C53.3905 29.8656 52.946 30.3074 52.4029 30.3074H31.1542C30.6605 30.3074 30.2584 30.7093 30.2584 31.1978V32.8083C30.2584 33.2991 30.6629 33.6988 31.1542 33.6988H40.0609C40.3806 33.6988 40.6416 33.9583 40.6416 34.2784C40.6416 34.3906 40.6087 34.4981 40.5523 34.5869L38.4597 37.7026V37.7049ZM44.8528 32.6891C44.4766 32.6891 44.1451 32.8808 43.9476 33.1682H43.9452L43.9359 33.1845L42.9107 34.7109C42.8543 34.7997 42.819 34.9072 42.819 35.0217C42.819 35.3419 43.08 35.6013 43.4021 35.6013H52.4029C52.946 35.6013 53.3905 35.1596 53.3905 34.6196V33.673C53.3905 33.1331 52.946 32.6915 52.4029 32.6915H44.8528V32.6891Z" fill="#353535"/>
<path fill-rule="evenodd" clip-rule="evenodd" d="M51.366 23.6294V16.9073H51.3615C51.3449 16.6222 51.2438 16.3394 51.051 16.101C50.5549 15.4769 49.645 15.3717 49.0171 15.8649L39.1206 23.6294H45.7677V23.5475H45.7488C45.3938 23.5475 45.107 23.2624 45.107 22.9095C45.107 22.7249 45.1869 22.559 45.3115 22.442H45.3092L45.3444 22.414L45.3585 22.4022L49.1583 19.4223C49.2335 19.3686 49.3252 19.3358 49.424 19.3358C49.6708 19.3358 49.873 19.5344 49.873 19.7799V23.6294H51.3684H51.366Z" fill="#353535"/>
<path fill-rule="evenodd" clip-rule="evenodd" d="M49.8732 22.9072H51.0441V23.6318H49.2383V23.5452C49.5887 23.5406 49.8708 23.2554 49.8708 22.9072H49.8732Z" fill="#353535"/>
</svg>
