<svg width="45" height="49" viewBox="0 0 45 49" fill="none" xmlns="http://www.w3.org/2000/svg">
<path d="M31 38.5L31.6402 39.2682C31.8682 39.0782 32 38.7968 32 38.5H31ZM13.5 31H12.5C12.5 31.2968 12.6318 31.5782 12.8598 31.7682L13.5 31ZM37.25 16V15C34.3505 15 32 12.6495 32 9.75H31H30C30 13.754 33.246 17 37.25 17V16ZM31 9.75H32C32 6.85051 34.3505 4.5 37.25 4.5V3.5V2.5C33.246 2.5 30 5.74594 30 9.75H31ZM37.25 3.5V4.5C40.1495 4.5 42.5 6.85051 42.5 9.75H43.5H44.5C44.5 5.74594 41.254 2.5 37.25 2.5V3.5ZM43.5 9.75H42.5C42.5 12.6495 40.1495 15 37.25 15V16V17C41.254 17 44.5 13.754 44.5 9.75H43.5ZM6 11V10C3.79087 10 2 8.2091 2 6H1H0C0 9.31365 2.68628 12 6 12V11ZM1 6H2C2 3.79086 3.79086 2 6 2V1V0C2.68629 0 0 2.68629 0 6H1ZM6 1V2C8.2091 2 10 3.79087 10 6H11H12C12 2.68628 9.31365 0 6 0V1ZM11 6H10C10 8.20909 8.20909 10 6 10V11V12C9.31366 12 12 9.31366 12 6H11ZM23.5 44.75L24.1402 45.5182L31.6402 39.2682L31 38.5L30.3598 37.7318L22.8598 43.9818L23.5 44.75ZM31 38.5H32V31H31H30V38.5H31ZM31 31H32C32 29.0195 32.5713 27.3818 33.4919 26.2595C34.4 25.1524 35.6812 24.5 37.25 24.5V23.5V22.5C35.0688 22.5 33.225 23.4313 31.9456 24.9911C30.6787 26.5356 30 28.6479 30 31H31ZM37.25 23.5V24.5C38.8188 24.5 40.1 25.1524 41.0081 26.2595C41.9287 27.3818 42.5 29.0195 42.5 31H43.5H44.5C44.5 28.6479 43.8213 26.5356 42.5544 24.9911C41.275 23.4313 39.4312 22.5 37.25 22.5V23.5ZM21 37.25L21.6402 36.4818L14.1402 30.2318L13.5 31L12.8598 31.7682L20.3598 38.0182L21 37.25ZM13.5 31H14.5V26H13.5H12.5V31H13.5ZM13.5 26H14.5C14.5 23.6479 13.8213 21.5356 12.5544 19.9911C11.275 18.4313 9.43118 17.5 7.25 17.5V18.5V19.5C8.81882 19.5 10.1 20.1524 11.0081 21.2595C11.9287 22.3818 12.5 24.0195 12.5 26H13.5ZM7.25 18.5V17.5C5.06882 17.5 3.22499 18.4313 1.94558 19.9911C0.678692 21.5356 0 23.6479 0 26H1H2C2 24.0195 2.57131 22.3818 3.49192 21.2595C4.40001 20.1524 5.68118 19.5 7.25 19.5V18.5ZM43.5 31H42.5V48.5H43.5H44.5V31H43.5ZM1 26H0V48.5H1H2V26H1Z" fill="#353535"/>
</svg>
