<svg width="44" height="44" viewBox="0 0 44 44" fill="none" xmlns="http://www.w3.org/2000/svg">
<path d="M14.4241 21.9998C16.9493 19.4746 19.4746 18.2119 21.9998 18.2119C24.525 18.2119 27.0504 19.4746 29.5756 21.9998M14.4241 21.9998C11.478 19.4746 9.26838 18.2119 7.79525 18.2119C6.32223 18.2119 4.11263 19.4746 1.1665 21.9998M14.4241 21.9998L21.9998 42.8332M29.5756 21.9998C32.5217 19.4746 34.7313 18.2119 36.2044 18.2119C37.6774 18.2119 39.887 19.4746 42.8332 21.9998M29.5756 21.9998L21.9998 42.8332M42.8332 21.9998C42.8332 10.4939 33.5058 1.1665 21.9998 1.1665C10.4939 1.1665 1.1665 10.4939 1.1665 21.9998M42.8332 21.9998L21.9998 42.8332M1.1665 21.9998L21.9998 42.8332" stroke="#353535" stroke-width="2" stroke-linejoin="round"/>
</svg>
