<svg width="33" height="31" viewBox="0 0 33 31" fill="none" xmlns="http://www.w3.org/2000/svg">
<path d="M18.938 14.7952C19.3508 18.3134 22.3421 21.0438 25.9702 21.0438C29.5983 21.0438 32.5895 18.3134 33 14.7952H32.9882C33.0058 14.6322 32.9738 14.4677 32.8962 14.323L26.7864 2.8847C26.7604 2.77196 26.7106 2.66595 26.6403 2.57368C26.5699 2.4814 26.4806 2.40495 26.3783 2.34937C26.3056 2.31219 26.2277 2.28618 26.1471 2.27223L26.1282 2.26755C26.0908 2.26182 26.0529 2.2587 26.015 2.2582C26.0032 2.2582 25.9914 2.25119 25.982 2.25119H17.3103V1.00988C17.3103 0.451173 16.94 3.19605e-08 16.4847 0C16.0294 0 15.659 0.451173 15.659 1.00988V2.25353H6.98971L6.95668 2.2582H6.92601C6.76512 2.27216 6.61298 2.33689 6.49196 2.44288L6.48724 2.44755C6.3528 2.56205 6.25861 2.71597 6.21831 2.88704L0.108514 14.323C0.0393678 14.4531 0.00677796 14.5992 0.014154 14.7461L0.011795 14.7952H0C0.412824 18.3134 3.40167 21.0415 7.02981 21.0415C10.6603 21.0415 13.6468 18.3111 14.0596 14.7952H14.0502C14.0666 14.632 14.0338 14.4676 13.9558 14.323L8.38859 3.90393H15.659V29.3519H6.98735C6.77252 29.3581 6.5689 29.4484 6.42119 29.6031C6.27348 29.7578 6.19373 29.9642 6.19944 30.1771C6.19944 30.633 6.55329 31 6.98735 31H25.982C26.0883 30.9973 26.1929 30.9738 26.2901 30.931C26.3872 30.8882 26.4748 30.8268 26.548 30.7504C26.6212 30.6739 26.6784 30.584 26.7165 30.4856C26.7546 30.3873 26.7727 30.2824 26.7699 30.1771C26.7727 30.0715 26.7545 29.9664 26.7163 29.8678C26.6781 29.7691 26.6207 29.6789 26.5473 29.6023C26.4739 29.5256 26.386 29.4641 26.2886 29.4211C26.1912 29.3782 26.0862 29.3547 25.9796 29.3519H17.3127V3.90393H24.6161L19.0489 14.323C18.9796 14.4539 18.947 14.6008 18.9545 14.7484L18.9522 14.7975H18.9404V14.7952H18.938ZM7.02981 19.3957C5.87434 19.3925 4.74997 19.0245 3.81977 18.3452C2.88957 17.666 2.20191 16.7107 1.85653 15.6181H10.4079C10.783 15.6181 11.0849 15.251 11.0849 14.7952C11.0849 14.3393 10.783 13.97 10.4079 13.97H2.16556L7.02981 4.86238L12.3847 14.8793C12.1741 16.1374 11.5208 17.2808 10.5406 18.1071C9.56039 18.9334 8.31665 19.3891 7.02981 19.3934V19.3957ZM25.9725 19.3957C24.817 19.3931 23.6923 19.0257 22.7617 18.3469C21.831 17.668 21.1428 16.713 20.7969 15.6204H29.4214C29.7988 15.6204 30.1055 15.2534 30.1055 14.7975C30.1055 14.3417 29.7988 13.9723 29.4214 13.9723H21.1059L25.9725 4.86238L31.3228 14.8817C31.1122 16.1393 30.4592 17.2825 29.4795 18.1087C28.4998 18.9349 27.2566 19.3909 25.9702 19.3957H25.9725Z" fill="#353535"/>
</svg>
