<svg width="28" height="20" viewBox="0 0 28 20" fill="none" xmlns="http://www.w3.org/2000/svg">
<path d="M16.6222 11.9248C17.9088 11.0696 18.7615 9.60745 18.7615 7.94973C18.7615 5.31893 16.6222 3.17969 13.9914 3.17969C11.3606 3.17969 9.22139 5.31893 9.22139 7.94973C9.22139 9.60745 10.0716 11.0696 11.3606 11.9248C8.44644 13.0007 6.35986 15.797 6.35986 19.0798H7.63137C7.63137 15.5738 10.4854 12.7198 13.9914 12.7198C17.4975 12.7198 20.3515 15.5738 20.3515 19.0798H21.623C21.623 15.797 19.5364 13.0007 16.6222 11.9248ZM10.4929 7.94973C10.4929 6.02115 12.0628 4.4512 13.9914 4.4512C15.92 4.4512 17.49 6.02115 17.49 7.94973C17.49 9.87831 15.92 11.4483 13.9914 11.4483C12.0628 11.4483 10.4929 9.87831 10.4929 7.94973Z" fill="white"/>
<path d="M22.9828 8.74507C24.2693 7.88988 25.122 6.42777 25.122 4.77004C25.122 2.13925 22.9828 0 20.352 0C19.0779 0 17.9218 0.504089 17.0641 1.32167C16.7481 1.62512 16.4722 1.96871 16.249 2.34991C16.6453 2.51042 17.024 2.70854 17.3726 2.94679C17.5983 2.58064 17.8867 2.25962 18.2253 1.9988C18.8146 1.54487 19.5494 1.27402 20.3495 1.27402C22.278 1.27402 23.848 2.84397 23.848 4.77255C23.848 6.37259 22.7646 7.72435 21.2949 8.13816C20.994 8.22343 20.678 8.27108 20.3495 8.27108C20.2366 8.27108 20.1262 8.26355 20.0159 8.25352C19.9933 8.71247 19.9206 9.15637 19.8027 9.58021C19.9833 9.56516 20.1639 9.54008 20.3495 9.54008C20.6078 9.54008 20.8611 9.56014 21.1119 9.59024C24.2593 9.96893 26.7095 12.6524 26.7095 15.9001H27.981C27.981 12.6173 25.8944 9.82096 22.9802 8.74507H22.9828Z" fill="white"/>
<path d="M7.63156 9.54008C7.81715 9.54008 7.99772 9.56265 8.17829 9.58021C8.05791 9.15386 7.98768 8.70996 7.96511 8.25352C7.85477 8.26355 7.74442 8.27108 7.63156 8.27108C7.30303 8.27108 6.98703 8.22343 6.68608 8.13816C5.21645 7.72435 4.13303 6.3751 4.13303 4.77255C4.13303 2.84397 5.70298 1.27402 7.63156 1.27402C8.43158 1.27402 9.1664 1.54738 9.75576 1.9988C10.0943 2.25962 10.3852 2.58064 10.6084 2.94679C10.9596 2.70854 11.3357 2.51042 11.732 2.34991C11.5063 1.97122 11.2329 1.62512 10.9169 1.32167C10.0617 0.504089 8.90307 0 7.62905 0C5.00077 0 2.86152 2.13925 2.86152 4.77004C2.86152 6.42777 3.7117 7.88988 5.00077 8.74507C2.08658 9.82096 0 12.6173 0 15.9001H1.27151C1.27151 12.6524 3.72173 9.96893 6.86916 9.59024C7.11995 9.56014 7.37325 9.54008 7.63156 9.54008Z" fill="white"/>
</svg>
