<svg width="30" height="28" viewBox="0 0 30 28" fill="none" xmlns="http://www.w3.org/2000/svg">
<g clip-path="url(#clip0_1266_190)">
<path d="M28.9211 17.6584L20.9662 23.3386L20.9324 23.3647C20.7035 23.5432 20.4208 23.6398 20.13 23.639H8.48359L4.98516 25.6917L2.47102 22.0305L7.0081 19.2501H14.2843L14.2974 20.7765L16.0841 20.7616L16.0541 17.5614H6.4794L0 21.5342L4.43959 28L8.99354 25.3278H20.13C20.8274 25.3288 21.5054 25.099 22.0573 24.6747L29.9972 19.0057L28.9211 17.6584ZM14.8111 16.5518C16.4361 16.4679 18.0008 15.9116 19.3113 14.9517C20.6219 13.9918 21.621 12.6705 22.1849 11.1512C22.7487 9.63203 22.8527 7.9816 22.4838 6.40419C22.1149 4.82679 21.2895 3.39165 20.1096 2.27639C18.9296 1.16113 17.4471 0.414688 15.8453 0.129453C14.2436 -0.155783 12.5929 0.0327024 11.0977 0.671583C9.60245 1.31046 8.32824 2.3717 7.43275 3.72395C6.53726 5.0762 6.05979 6.66012 6.05944 8.27968C6.12228 10.5303 7.07851 12.6644 8.71879 14.2148C10.3591 15.7652 12.5497 16.6055 14.8111 16.5518ZM14.8111 1.69817C16.1034 1.76452 17.3479 2.20606 18.3909 2.96828C19.434 3.73051 20.23 4.78004 20.6806 5.98735C21.1313 7.19465 21.2169 8.50687 20.9268 9.76204C20.6368 11.0172 19.9839 12.1604 19.0486 13.0504C18.1133 13.9405 16.9366 14.5385 15.6638 14.7706C14.391 15.0027 13.0778 14.8588 11.8862 14.3566C10.6947 13.8544 9.67691 13.0159 8.95863 11.9446C8.24034 10.8733 7.85295 9.6161 7.84427 8.3282V8.27968C7.8924 6.48694 8.65284 4.78636 9.95885 3.55084C11.2649 2.31532 13.0098 1.64571 14.8111 1.68884V1.69817ZM17.6496 7.48289L15.8498 9.18098V4.4711H14.1456V9.18098L12.3476 7.48289L11.1421 8.6193L14.9986 12.2543L16.2041 11.1161L18.8551 8.6137L17.6496 7.48289Z" fill="white"/>
</g>
<defs>
<clipPath id="clip0_1266_190">
<rect width="30" height="28" fill="white"/>
</clipPath>
</defs>
</svg>
