<svg width="30" height="28" viewBox="0 0 30 28" fill="none" xmlns="http://www.w3.org/2000/svg">
<path d="M28.9211 17.6585L20.9662 23.3387L20.9324 23.3649C20.7035 23.5434 20.4208 23.64 20.13 23.6392H8.48359L4.98516 25.6918L2.47102 22.0306L7.0081 19.2502H14.2843L14.2974 20.7767L16.0841 20.7617L16.0541 17.5615H6.4794L0 21.5343L4.43959 28.0001L8.99354 25.3279H20.13C20.8274 25.3289 21.5054 25.0991 22.0573 24.6748L29.9972 19.0058L28.9211 17.6585ZM14.8111 16.552C16.4361 16.468 18.0008 15.9117 19.3113 14.9518C20.6219 13.9919 21.621 12.6706 22.1849 11.1514C22.7487 9.63215 22.8527 7.98172 22.4838 6.40431C22.1149 4.82691 21.2895 3.39177 20.1096 2.27651C18.9296 1.16125 17.4471 0.414811 15.8453 0.129575C14.2436 -0.155661 12.5929 0.0328244 11.0977 0.671705C9.60245 1.31059 8.32824 2.37182 7.43275 3.72407C6.53726 5.07632 6.05979 6.66024 6.05944 8.27981C6.12228 10.5304 7.07851 12.6645 8.71879 14.2149C10.3591 15.7653 12.5497 16.6056 14.8111 16.552ZM14.8111 1.69829C16.1034 1.76465 17.3479 2.20619 18.3909 2.96841C19.434 3.73063 20.23 4.78016 20.6806 5.98747C21.1313 7.19477 21.2169 8.50699 20.9268 9.76216C20.6368 11.0173 19.9839 12.1605 19.0486 13.0505C18.1133 13.9406 16.9366 14.5386 15.6638 14.7707C14.391 15.0028 13.0778 14.8589 11.8862 14.3567C10.6947 13.8545 9.67691 13.016 8.95863 11.9447C8.24034 10.8734 7.85295 9.61623 7.84427 8.32832V8.27981C7.8924 6.48707 8.65284 4.78648 9.95885 3.55096C11.2649 2.31544 13.0098 1.64583 14.8111 1.68896V1.69829ZM17.6496 7.48301L15.8498 9.1811V4.47122H14.1456V9.1811L12.3476 7.48301L11.1421 8.61942L14.9986 12.2545L16.2041 11.1162L18.8551 8.61383L17.6496 7.48301Z" fill="#353535"/>
</svg>
