<svg width="20" height="18" viewBox="0 0 20 18" fill="none" xmlns="http://www.w3.org/2000/svg">
<path d="M19.875 0H19.625L0 9.86409V9.98736C0 10.1106 -7.33507e-08 10.1106 0.124985 10.1106L6.6242 12.2062H6.87417L16.0005 4.19123L8.75135 12.5761V12.6993C8.75135 12.8226 8.75135 12.9459 8.87634 12.9459L16.1279 15.1648H16.2529L16.3778 15.0415L20 0.246543C20 0.123272 20 0 19.875 0ZM9.00132 13.932H8.87634L8.75135 14.0553V17.7535C8.75135 17.8767 8.87634 18 9.00132 18C9.12631 18 9.12631 18 9.12631 17.8767L11.1261 14.7949V14.6717L11.0011 14.5484L9.00132 13.932Z" fill="black"/>
</svg>
