<svg width="36" height="45" viewBox="0 0 36 45" fill="none" xmlns="http://www.w3.org/2000/svg">
<path d="M1.76367 42.4141H34.2363C34.676 42.4141 34.9893 42.4896 35.1836 42.6299C35.3454 42.7468 35.5 42.9632 35.5 43.457C35.5 43.9509 35.3454 44.1673 35.1836 44.2842C34.9893 44.4244 34.676 44.5 34.2363 44.5H1.76367C1.32404 44.5 1.01072 44.4244 0.816406 44.2842C0.654558 44.1673 0.5 43.9509 0.5 43.457C0.5 42.9632 0.654558 42.7468 0.816406 42.6299C1.01072 42.4896 1.32404 42.4141 1.76367 42.4141ZM18.2207 0.5C21.0053 0.500068 23.3439 1.45829 24.9844 3.0625C26.6242 4.66609 27.5947 6.94271 27.5947 9.63672C27.5947 11.3797 27.2692 12.7233 26.5957 13.8389C25.9208 14.9568 24.8692 15.8927 23.3359 16.7695L23.0508 16.9316L23.0869 17.2578L24.1152 26.5293L24.165 26.9746H32.6943C34.1891 26.9749 35.4268 28.204 35.4268 29.6543V36.3027C35.4268 37.7531 34.1891 38.9822 32.6943 38.9824H3.30566C1.81093 38.9822 0.573242 37.7531 0.573242 36.3027V29.6543C0.573242 28.204 1.81093 26.9749 3.30566 26.9746H12.2764L12.3252 26.5293L13.3545 17.2578L13.3906 16.9316L13.1055 16.7695C11.5721 15.8926 10.5196 14.9569 9.84473 13.8389C9.17134 12.7233 8.8457 11.3796 8.8457 9.63672C8.8457 6.94282 9.81638 4.66608 11.4561 3.0625C13.0966 1.45823 15.4359 0.5 18.2207 0.5ZM18.2207 3.21094C14.5768 3.21094 11.6221 6.09697 11.6221 9.63672C11.6221 11.9158 12.8235 13.9554 14.8066 15.126L14.8359 15.1426L14.8662 15.1562L16.4639 15.832L15.0088 29.6855H3.34961V36.1992H32.7236V29.6855H21.8203L20.043 15.8232L21.5791 15.1533L21.6074 15.1416L21.6338 15.126C23.6202 13.9537 24.8184 11.8402 24.8184 9.63672C24.8184 6.09706 21.8645 3.21109 18.2207 3.21094Z" fill="white" stroke="#AE8DFF"/>
</svg>
