<svg width="42" height="41" viewBox="0 0 42 41" fill="none" xmlns="http://www.w3.org/2000/svg">
<path d="M38.2371 40H3.76289C2.23711 40 1 38.7768 1 37.2682V25.403C1 23.8944 2.23711 22.6712 3.76289 22.6712H13.0619V24.7099H3.76289C3.39175 24.7099 3.06186 25.0361 3.06186 25.403V37.2682C3.06186 37.6351 3.39175 37.9613 3.76289 37.9613H38.2371C38.6082 37.9613 38.9381 37.6351 38.9381 37.2682V25.403C38.9381 25.0361 38.6082 24.7099 38.2371 24.7099H26.2577V22.6712H38.2371C39.7629 22.6712 41 23.8944 41 25.403V37.2682C41 38.7768 39.7629 40 38.2371 40Z" fill="#353535"/>
<path d="M19.6186 31.1317C19.3093 31.1317 18.9794 31.0094 18.7526 30.7852L6.54639 18.6958C6.07216 18.2269 6.07216 17.4522 6.54639 16.9629L22.3196 1.36696C22.5464 1.14271 22.8557 1 23.1856 1C23.5155 1 23.8247 1.12232 24.0515 1.36696L36.2577 13.436C36.732 13.9049 36.732 14.6796 36.2577 15.1688L20.4845 30.7648C20.2577 31.0094 19.9278 31.1317 19.6186 31.1317ZM8.58763 17.8395L19.6186 28.7465L34.2165 14.3126L23.1856 3.40565L8.58763 17.8395Z" fill="#353535"/>
<path d="M20.1753 21.1014C19.6392 21.1014 19.1031 20.8975 18.6907 20.5102L18.6701 20.4898L15.3299 17.1464C14.9381 16.7386 14.9381 16.1066 15.3299 15.6989C15.7423 15.3116 16.3814 15.3116 16.7938 15.6989L20.134 19.022C20.1753 19.0423 20.1959 19.0423 20.2165 19.0423L25.1649 14.1495C25.5773 13.7418 26.2165 13.7418 26.6289 14.1495C27.0412 14.5572 27.0412 15.1892 26.6289 15.597L21.6804 20.4898C21.268 20.8975 20.732 21.1014 20.1753 21.1014Z" fill="#353535"/>
<path d="M31.3093 31.6414H10.6907C10.1134 31.6414 9.65979 31.1929 9.65979 30.6221C9.65979 30.0512 10.1134 29.6027 10.6907 29.6027H31.3093C31.8866 29.6027 32.3402 30.0512 32.3402 30.6221C32.3402 31.1929 31.8866 31.6414 31.3093 31.6414Z" fill="#353535"/>
<path d="M38.2371 40H3.76289C2.23711 40 1 38.7768 1 37.2682V25.403C1 23.8944 2.23711 22.6712 3.76289 22.6712H13.0619V24.7099H3.76289C3.39175 24.7099 3.06186 25.0361 3.06186 25.403V37.2682C3.06186 37.6351 3.39175 37.9613 3.76289 37.9613H38.2371C38.6082 37.9613 38.9381 37.6351 38.9381 37.2682V25.403C38.9381 25.0361 38.6082 24.7099 38.2371 24.7099H26.2577V22.6712H38.2371C39.7629 22.6712 41 23.8944 41 25.403V37.2682C41 38.7768 39.7629 40 38.2371 40Z" stroke="#E1FFAA" stroke-width="0.5"/>
<path d="M19.6186 31.1317C19.3093 31.1317 18.9794 31.0094 18.7526 30.7852L6.54639 18.6958C6.07216 18.2269 6.07216 17.4522 6.54639 16.9629L22.3196 1.36696C22.5464 1.14271 22.8557 1 23.1856 1C23.5155 1 23.8247 1.12232 24.0515 1.36696L36.2577 13.436C36.732 13.9049 36.732 14.6796 36.2577 15.1688L20.4845 30.7648C20.2577 31.0094 19.9278 31.1317 19.6186 31.1317ZM8.58763 17.8395L19.6186 28.7465L34.2165 14.3126L23.1856 3.40565L8.58763 17.8395Z" stroke="#E1FFAA" stroke-width="0.5"/>
<path d="M20.1753 21.1014C19.6392 21.1014 19.1031 20.8975 18.6907 20.5102L18.6701 20.4898L15.3299 17.1464C14.9381 16.7386 14.9381 16.1066 15.3299 15.6989C15.7423 15.3116 16.3814 15.3116 16.7938 15.6989L20.134 19.022C20.1753 19.0423 20.1959 19.0423 20.2165 19.0423L25.1649 14.1495C25.5773 13.7418 26.2165 13.7418 26.6289 14.1495C27.0412 14.5572 27.0412 15.1892 26.6289 15.597L21.6804 20.4898C21.268 20.8975 20.732 21.1014 20.1753 21.1014Z" stroke="#E1FFAA" stroke-width="0.5"/>
<path d="M31.3093 31.6414H10.6907C10.1134 31.6414 9.65979 31.1929 9.65979 30.6221C9.65979 30.0512 10.1134 29.6027 10.6907 29.6027H31.3093C31.8866 29.6027 32.3402 30.0512 32.3402 30.6221C32.3402 31.1929 31.8866 31.6414 31.3093 31.6414Z" stroke="#E1FFAA" stroke-width="0.5"/>
</svg>
