<svg width="36" height="39" viewBox="0 0 36 39" fill="none" xmlns="http://www.w3.org/2000/svg">
<path d="M27.3623 17.7852C27.8402 17.3046 28.6097 17.2748 29.124 17.6953L29.2236 17.7852L35.1152 23.7461L35.1162 23.7471C35.6266 24.2604 35.6285 25.1074 35.1162 25.627C34.6382 26.1077 33.8688 26.1377 33.3545 25.7168L33.2559 25.627H33.2549L30.4209 22.7812L29.5664 21.9229V37.1768C29.5663 37.9033 28.9712 38.4998 28.25 38.5C27.5278 38.5 26.9327 37.907 26.9326 37.1768V21.9189L26.0781 22.7764L23.2441 25.6221V25.623C22.7344 26.1357 21.8926 26.1356 21.3828 25.623C20.8721 25.1094 20.8713 24.2635 21.3809 23.749L27.3613 17.7871L27.3623 17.7852ZM1.73047 0.5H32.6201C33.2989 0.500231 33.8506 1.04981 33.8506 1.73633V1.7373L33.8896 15.6758L31.4307 13.7051L31.3887 3.4707L31.3867 2.97266H2.95312V32.1758L3.78906 31.415L5.72852 29.6494L11.2021 34.6436L11.5391 34.9502L11.876 34.6436L17.207 29.7852L21.9561 34.1113V37.4492L17.5488 33.4307L17.2119 33.123L16.875 33.4307L11.5469 38.2881L6.07422 33.2998L5.7373 32.9922L5.40039 33.2998L0.5 37.7666V1.73633C0.500002 1.05329 1.05239 0.500135 1.73047 0.5ZM8.27441 18.2598H17.5537C18.2205 18.2598 18.7714 18.8054 18.7715 19.4824C18.7715 20.1533 18.2224 20.7061 17.5537 20.7061H8.27246C7.60577 20.7059 7.05469 20.1594 7.05469 19.4824C7.05478 18.8497 7.54079 18.3251 8.15137 18.2646L8.27441 18.2598ZM8.27734 9.35547H24.4375C25.1044 9.35547 25.6553 9.90197 25.6553 10.5791C25.6552 11.2535 25.107 11.8027 24.4375 11.8027H8.27734C7.64757 11.8027 7.12552 11.3183 7.06543 10.7051L7.05957 10.5811V10.5791C7.05957 9.90821 7.60862 9.35547 8.27734 9.35547Z" fill="#353535" stroke="#E1FFAA"/>
</svg>
