<svg width="38" height="38" viewBox="0 0 38 38" fill="none" xmlns="http://www.w3.org/2000/svg">
<path d="M35.6954 23.32C35.1512 23.14 34.2442 22.78 32.9743 23.32C32.7929 22.96 32.6115 22.6 32.2487 22.42C31.3417 21.7 29.8905 21.7 28.6206 22.42C28.4392 22.24 28.2578 22.06 28.0764 22.06C27.1694 21.52 25.8996 21.7 24.2669 22.6L19.7318 24.94C19.5504 24.94 19.5504 25.12 19.369 25.12C18.2806 24.94 17.1922 24.4 15.3781 22.96C14.2897 22.24 13.3827 21.52 12.2943 20.8C11.2058 20.08 9.21038 19.9 7.39634 20.62L1.77281 22.78C1.22859 22.96 0.865784 23.68 1.04719 24.4C1.22859 24.94 1.95421 25.3 2.67983 25.12L8.12196 22.78C9.21038 22.42 10.2988 22.42 10.4802 22.6C11.5686 23.32 12.4757 24.04 13.5641 24.76C15.3781 26.02 16.4666 26.74 17.555 27.1C18.6434 27.46 19.7318 27.46 21.1831 27.46H23.5413C23.5413 27.46 23.3599 27.64 23.1785 27.64C19.0062 29.44 16.648 28.72 12.4757 26.74C11.9314 26.38 11.2058 26.74 10.843 27.28C10.4802 27.82 10.843 28.54 11.3872 28.9C13.5641 29.98 15.5595 30.88 17.555 31.06H18.8248C20.4575 31.06 22.2715 30.7 24.0855 29.8C24.8112 29.62 25.174 29.26 25.5368 28.72C25.8996 28.18 26.081 27.64 25.8996 27.1C25.7182 26.02 24.8112 25.12 23.7227 25.12H23.5413L24.9926 24.4C25.7182 24.04 26.081 23.86 26.4438 23.86V24.04C26.4438 24.4 26.6252 24.94 27.1694 25.12C27.5322 25.3 28.0764 25.3 28.4392 25.12L29.1649 24.58C29.8905 24.04 30.2533 24.04 30.4347 24.04C30.4347 24.04 30.4347 24.4 30.2533 24.58C30.0719 25.12 30.2533 25.66 30.6161 26.02C30.9789 26.38 31.7045 26.38 32.0673 26.02C33.3372 25.12 34.0628 25.12 34.2442 25.3C34.4256 25.3 34.4256 25.48 34.4256 25.48V25.66H34.2442L25.7182 31.06L22.0901 33.4C21.1831 33.94 19.9132 34.48 18.6434 34.48C17.3736 34.66 16.648 34.48 16.4666 34.3C16.2852 34.3 16.2852 34.12 16.1037 34.12C14.6525 33.76 13.3827 33.4 12.2943 33.04C9.57319 32.14 7.57774 31.6 3.94966 31.96C3.22404 31.96 2.86123 32.68 2.86123 33.4C2.86123 34.12 3.58685 34.48 4.31247 34.48C7.39634 34.12 9.02898 34.66 11.5686 35.38C12.6571 35.74 13.7455 36.1 15.3781 36.46C16.2852 36.82 17.0108 37 17.9178 37C19.7318 37 21.9087 36.46 23.5413 35.38L27.1694 33.04L35.6954 27.82C36.6024 27.46 36.9652 26.56 36.9652 25.66C37.1466 24.58 36.6024 23.68 35.6954 23.32Z" fill="#353535"/>
<path d="M19.0062 21.16C21.7273 21.16 24.2669 20.08 26.2624 18.28C28.2578 16.3 29.3463 13.78 29.3463 11.08C29.3463 8.38 28.2578 5.86 26.2624 3.88C24.2669 2.08 21.7273 1 19.0062 1C16.2852 1 13.7455 2.08 11.75 3.88C9.7546 5.86 8.66617 8.38 8.66617 11.08C8.66617 13.78 9.7546 16.3 11.75 18.28C13.7455 20.26 16.2852 21.16 19.0062 21.16ZM19.0062 3.34C23.3599 3.34 26.8066 6.76 26.8066 11.08C26.8066 15.4 23.3599 18.82 19.0062 18.82C14.6525 18.82 11.2058 15.4 11.2058 11.08C11.2058 6.94 14.6525 3.34 19.0062 3.34Z" fill="#353535"/>
<path d="M19.0062 12.34C20.276 12.34 20.8203 12.7 21.0017 12.88V13.24C20.6389 13.6 20.0946 13.78 18.8248 13.78C18.2806 13.6 17.555 13.42 16.8294 13.24H16.648C15.9223 12.88 15.3781 13.24 15.0153 13.96C14.8339 14.5 15.1967 15.22 15.9223 15.4H16.1037C16.648 15.76 17.1922 15.94 17.7364 15.94V17.2C17.7364 17.92 18.2806 18.46 19.0062 18.46C19.7318 18.46 20.276 17.92 20.276 17.2V16.12C20.6389 16.12 21.0017 15.94 21.1831 15.94C21.9087 15.76 22.6343 15.22 22.9971 14.68C23.5413 13.78 23.7227 12.7 23.1785 11.8C22.4529 10.54 21.0017 9.82 19.1876 9.82C17.9178 9.82 17.3736 9.46 17.1922 9.28V8.92C17.3736 8.56 18.0992 8.38 19.1876 8.38C19.9132 8.38 20.4574 8.74 21.3645 8.92H21.5459C22.2715 9.1 22.8157 8.74 23.1785 8.2C23.3599 7.48 22.9971 6.94 22.4529 6.58H22.2715C21.7273 6.4 21.0017 6.22 20.4575 6.04V4.96C20.4575 4.24 19.9132 3.7 19.1876 3.7C18.462 3.7 17.9178 4.24 17.9178 4.96V6.04C16.648 6.22 15.5595 6.76 15.0153 7.66C14.4711 8.56 14.4711 9.46 14.8339 10.36C15.5595 11.62 17.0108 12.34 19.0062 12.34Z" fill="#353535"/>
<path d="M35.6954 23.32C35.1512 23.14 34.2442 22.78 32.9743 23.32C32.7929 22.96 32.6115 22.6 32.2487 22.42C31.3417 21.7 29.8905 21.7 28.6206 22.42C28.4392 22.24 28.2578 22.06 28.0764 22.06C27.1694 21.52 25.8996 21.7 24.2669 22.6L19.7318 24.94C19.5504 24.94 19.5504 25.12 19.369 25.12C18.2806 24.94 17.1922 24.4 15.3781 22.96C14.2897 22.24 13.3827 21.52 12.2943 20.8C11.2058 20.08 9.21038 19.9 7.39634 20.62L1.77281 22.78C1.22859 22.96 0.865784 23.68 1.04719 24.4C1.22859 24.94 1.95421 25.3 2.67983 25.12L8.12196 22.78C9.21038 22.42 10.2988 22.42 10.4802 22.6C11.5686 23.32 12.4757 24.04 13.5641 24.76C15.3781 26.02 16.4666 26.74 17.555 27.1C18.6434 27.46 19.7318 27.46 21.1831 27.46H23.5413C23.5413 27.46 23.3599 27.64 23.1785 27.64C19.0062 29.44 16.648 28.72 12.4757 26.74C11.9314 26.38 11.2058 26.74 10.843 27.28C10.4802 27.82 10.843 28.54 11.3872 28.9C13.5641 29.98 15.5595 30.88 17.555 31.06H18.8248C20.4575 31.06 22.2715 30.7 24.0855 29.8C24.8112 29.62 25.174 29.26 25.5368 28.72C25.8996 28.18 26.081 27.64 25.8996 27.1C25.7182 26.02 24.8112 25.12 23.7227 25.12H23.5413L24.9926 24.4C25.7182 24.04 26.081 23.86 26.4438 23.86V24.04C26.4438 24.4 26.6252 24.94 27.1694 25.12C27.5322 25.3 28.0764 25.3 28.4392 25.12L29.1649 24.58C29.8905 24.04 30.2533 24.04 30.4347 24.04C30.4347 24.04 30.4347 24.4 30.2533 24.58C30.0719 25.12 30.2533 25.66 30.6161 26.02C30.9789 26.38 31.7045 26.38 32.0673 26.02C33.3372 25.12 34.0628 25.12 34.2442 25.3C34.4256 25.3 34.4256 25.48 34.4256 25.48V25.66H34.2442L25.7182 31.06L22.0901 33.4C21.1831 33.94 19.9132 34.48 18.6434 34.48C17.3736 34.66 16.648 34.48 16.4666 34.3C16.2852 34.3 16.2852 34.12 16.1037 34.12C14.6525 33.76 13.3827 33.4 12.2943 33.04C9.57319 32.14 7.57774 31.6 3.94966 31.96C3.22404 31.96 2.86123 32.68 2.86123 33.4C2.86123 34.12 3.58685 34.48 4.31247 34.48C7.39634 34.12 9.02898 34.66 11.5686 35.38C12.6571 35.74 13.7455 36.1 15.3781 36.46C16.2852 36.82 17.0108 37 17.9178 37C19.7318 37 21.9087 36.46 23.5413 35.38L27.1694 33.04L35.6954 27.82C36.6024 27.46 36.9652 26.56 36.9652 25.66C37.1466 24.58 36.6024 23.68 35.6954 23.32Z" stroke="#E1FFAA"/>
<path d="M19.0062 21.16C21.7273 21.16 24.2669 20.08 26.2624 18.28C28.2578 16.3 29.3463 13.78 29.3463 11.08C29.3463 8.38 28.2578 5.86 26.2624 3.88C24.2669 2.08 21.7273 1 19.0062 1C16.2852 1 13.7455 2.08 11.75 3.88C9.7546 5.86 8.66617 8.38 8.66617 11.08C8.66617 13.78 9.7546 16.3 11.75 18.28C13.7455 20.26 16.2852 21.16 19.0062 21.16ZM19.0062 3.34C23.3599 3.34 26.8066 6.76 26.8066 11.08C26.8066 15.4 23.3599 18.82 19.0062 18.82C14.6525 18.82 11.2058 15.4 11.2058 11.08C11.2058 6.94 14.6525 3.34 19.0062 3.34Z" stroke="#E1FFAA"/>
<path d="M19.0062 12.34C20.276 12.34 20.8203 12.7 21.0017 12.88V13.24C20.6389 13.6 20.0946 13.78 18.8248 13.78C18.2806 13.6 17.555 13.42 16.8294 13.24H16.648C15.9223 12.88 15.3781 13.24 15.0153 13.96C14.8339 14.5 15.1967 15.22 15.9223 15.4H16.1037C16.648 15.76 17.1922 15.94 17.7364 15.94V17.2C17.7364 17.92 18.2806 18.46 19.0062 18.46C19.7318 18.46 20.276 17.92 20.276 17.2V16.12C20.6389 16.12 21.0017 15.94 21.1831 15.94C21.9087 15.76 22.6343 15.22 22.9971 14.68C23.5413 13.78 23.7227 12.7 23.1785 11.8C22.4529 10.54 21.0017 9.82 19.1876 9.82C17.9178 9.82 17.3736 9.46 17.1922 9.28V8.92C17.3736 8.56 18.0992 8.38 19.1876 8.38C19.9132 8.38 20.4574 8.74 21.3645 8.92H21.5459C22.2715 9.1 22.8157 8.74 23.1785 8.2C23.3599 7.48 22.9971 6.94 22.4529 6.58H22.2715C21.7273 6.4 21.0017 6.22 20.4575 6.04V4.96C20.4575 4.24 19.9132 3.7 19.1876 3.7C18.462 3.7 17.9178 4.24 17.9178 4.96V6.04C16.648 6.22 15.5595 6.76 15.0153 7.66C14.4711 8.56 14.4711 9.46 14.8339 10.36C15.5595 11.62 17.0108 12.34 19.0062 12.34Z" stroke="#E1FFAA"/>
</svg>
