<svg width="36" height="36" viewBox="0 0 36 36" fill="none" xmlns="http://www.w3.org/2000/svg">
<path d="M14.4717 0.859375C16.6539 0.410747 18.9006 0.381923 21.0908 0.774414L21.5283 0.859375H21.5293C22.5154 1.0602 23.4821 1.34619 24.418 1.71484L24.8174 1.87793L24.8213 1.87988C25.8636 2.311 26.8606 2.84418 27.7979 3.47168L27.8057 3.47656L27.8125 3.48145C27.9429 3.56219 28.0562 3.66853 28.1445 3.79395C28.2107 3.88801 28.2618 3.99151 28.2969 4.10059L28.3271 4.21094C28.3512 4.32333 28.3581 4.43871 28.3477 4.55273L28.3311 4.66699C28.3091 4.77982 28.2701 4.88845 28.2158 4.98926L28.1562 5.08691C28.0918 5.18222 28.0134 5.26734 27.9238 5.33887L27.8311 5.40625C27.7022 5.48941 27.5574 5.54531 27.4062 5.57129C27.2552 5.59723 27.1004 5.59199 26.9512 5.55664C26.802 5.52127 26.6615 5.45626 26.5381 5.36523L26.5303 5.35938L26.5215 5.35352L26.0449 5.04395C23.6351 3.54009 20.8481 2.73926 18 2.73926C15.1521 2.7393 12.3657 3.54027 9.95605 5.04395L9.47852 5.35352C7.95311 6.38153 6.62759 7.67707 5.56445 9.17578L5.35547 9.47852H5.35449C4.87431 10.1934 4.45446 10.9467 4.09863 11.7305L3.9502 12.0684L3.94824 12.0732C2.77078 14.9152 2.475 18.0456 3.09961 21.0576V21.0586C3.26454 21.9156 3.50261 22.7571 3.81055 23.5732L3.94629 23.9209L3.95117 23.9316C5.12216 26.644 7.05089 28.9611 9.50586 30.6045V30.6035C12.0206 32.3062 14.9875 33.2167 18.0244 33.2168C21.0617 33.2168 24.029 32.3055 26.5439 30.6025L26.5449 30.6035C28.0708 29.5754 29.3976 28.2803 30.4609 26.7812L30.6699 26.4785V26.4775C31.1502 25.7625 31.5709 25.0095 31.9268 24.2256L32.0752 23.8887L32.0771 23.8838C33.2575 21.0365 33.5525 17.8993 32.9238 14.8818H32.9229C32.7344 13.9052 32.4518 12.9491 32.0781 12.0273L32.0723 12.0137L31.9229 11.6836C31.5645 10.9158 31.1454 10.1777 30.6689 9.47656L30.6572 9.46094L30.5938 9.36523C30.5354 9.26675 30.4924 9.15965 30.4658 9.04785C30.4393 8.93591 30.4305 8.82038 30.4385 8.70605L30.4521 8.5918C30.4717 8.47844 30.5074 8.36864 30.5596 8.2666L30.6172 8.16797C30.6795 8.07136 30.7559 7.98456 30.8438 7.91113L30.9355 7.8418C31.0308 7.77733 31.1354 7.7284 31.2451 7.69531L31.3564 7.66699C31.5069 7.63776 31.6617 7.63984 31.8115 7.67188C31.924 7.69593 32.032 7.73678 32.1318 7.79297L32.2295 7.85449C32.3233 7.92065 32.4069 8.00013 32.4766 8.09082L32.541 8.18555L32.5459 8.19336L32.5518 8.20117C33.102 9.02011 33.5784 9.88595 33.9766 10.7881L34.1426 11.1768L34.1445 11.1807C34.4784 11.97 34.7526 12.7831 34.9658 13.6123H34.9639L35.1396 14.4619C35.8112 17.7199 35.54 21.0974 34.3662 24.2002L34.1201 24.8164L34.1182 24.8213C33.7426 25.7336 33.287 26.6104 32.7578 27.4424L32.5273 27.7959L32.5264 27.7969C31.3512 29.5494 29.8659 31.0709 28.1445 32.2871L27.7979 32.5254C26.9777 33.0745 26.1119 33.5517 25.21 33.9512L24.8213 34.1182L24.8174 34.1191C22.6601 35.0303 20.3418 35.5 18 35.5C15.8045 35.5 13.6297 35.0876 11.5889 34.2852L11.1826 34.1191L11.1797 34.1182L10.79 33.9512C10.0171 33.6088 9.27053 33.2096 8.55664 32.7568L8.20215 32.5254C6.45019 31.3504 4.92881 29.8655 3.71289 28.1445L3.47363 27.7969V27.7959L3.24219 27.4424C2.78866 26.7293 2.38909 25.9831 2.04785 25.21L1.88281 24.8213L1.88086 24.8164L1.71484 24.4102C0.912521 22.3693 0.50003 20.1946 0.5 17.999C0.5 15.8032 0.912382 13.628 1.71484 11.5869L1.88086 11.1807L1.88281 11.1768C2.25836 10.2644 2.71298 9.38677 3.24219 8.55469L3.47363 8.20117C4.72708 6.33185 6.33391 4.72519 8.20312 3.47168L8.20215 3.4707C9.02214 2.92172 9.88827 2.44531 10.79 2.0459L11.1797 1.87988L11.1826 1.87793C12.1097 1.48573 13.0693 1.17545 14.0498 0.950195L14.4707 0.859375H14.4717ZM16.3623 7.03027C16.664 7.03038 16.9536 7.14992 17.167 7.36328C17.3804 7.57667 17.4999 7.86619 17.5 8.16797V18.499H27.8301C28.0943 18.4991 28.3492 18.5908 28.5518 18.7568L28.6348 18.832C28.8482 19.0455 28.9688 19.3358 28.9688 19.6377C28.9686 19.9016 28.8766 20.156 28.7109 20.3584L28.6348 20.4424C28.4213 20.6557 28.1318 20.7753 27.8301 20.7754H16.3623C16.0981 20.7754 15.8432 20.6836 15.6406 20.5176L15.5566 20.4424C15.3433 20.229 15.2238 19.9394 15.2236 19.6377V8.16797L15.2295 8.05566C15.2517 7.83244 15.3393 7.62081 15.4814 7.44727L15.5566 7.36328C15.7701 7.14982 16.0604 7.03027 16.3623 7.03027Z" fill="white" stroke="#AE8DFF"/>
</svg>
