<svg width="34" height="34" viewBox="0 0 34 34" fill="none" xmlns="http://www.w3.org/2000/svg">
<g clip-path="url(#clip0_2209_1049)">
<path d="M33.6361 17.5016L29.6451 6.53796C29.6152 6.45163 29.6783 6.35866 29.7713 6.35866H32.3179C32.391 6.35866 32.4508 6.2989 32.4508 6.22253C32.4508 5.67468 32.2283 5.17663 31.8664 4.81472C31.5045 4.4528 31.0064 4.23034 30.4586 4.23034H18.605C18.3129 4.23034 18.0738 3.99128 18.0738 3.69909V2.12858C18.0738 1.54753 17.6156 1.05944 17.0345 1.04616C16.7324 1.03952 16.4568 1.15905 16.2576 1.35827C16.065 1.55085 15.9455 1.81647 15.9455 2.10866V3.70241C15.9455 3.9946 15.7064 4.23366 15.4142 4.23366H3.59724C2.49822 4.23366 1.60505 5.12683 1.60505 6.22585C1.60505 6.26237 1.62165 6.29558 1.6449 6.31882C1.66814 6.34206 1.70134 6.35866 1.73786 6.35866H4.18493C4.2779 6.35866 4.34099 6.45163 4.31111 6.53796L0.320091 17.5016C0.31013 17.5282 0.300169 17.5548 0.286888 17.5813C-0.124831 18.428 -0.101589 19.4208 0.409739 20.211C0.804856 20.8253 1.31286 21.3731 1.90388 21.8346C3.12908 22.7876 4.71618 23.362 6.45271 23.362C9.15544 23.362 11.4996 21.9708 12.6683 19.9288C13.0967 19.1817 13.0435 18.2753 12.6019 17.5348C12.5953 17.5249 12.592 17.5149 12.5886 17.505L8.59431 6.53796C8.56443 6.45163 8.62751 6.35866 8.72048 6.35866H12.7613C14.5211 6.35866 15.9488 7.7864 15.9488 9.54616V28.9235C15.9488 29.7071 15.3777 30.3778 14.6041 30.4973C12.499 30.8227 10.7791 31.5233 9.83611 32.4231H24.7211C23.705 31.4569 21.7992 30.7231 19.4783 30.4309C18.6781 30.3313 18.0771 29.654 18.0771 28.8505V9.54616C18.0771 7.7864 19.5049 6.35866 21.2646 6.35866H25.2656C25.3586 6.35866 25.4217 6.45163 25.3918 6.53796L21.3941 17.5016C21.3875 17.5182 21.3808 17.5348 21.3709 17.5514C20.9293 18.3583 20.9127 19.3311 21.3974 20.1147C22.5994 22.0538 24.8838 23.362 27.5035 23.362C30.2029 23.362 32.5437 21.9741 33.7125 19.9387C34.1441 19.1883 34.0877 18.2753 33.6461 17.5315C33.6427 17.5182 33.6394 17.5116 33.6361 17.5016ZM6.44939 21.2337C5.26072 21.2337 4.11853 20.8551 3.22536 20.1712H9.67341C8.78357 20.8551 7.63806 21.2337 6.44939 21.2337ZM10.5201 18.0462H2.38533L6.32986 7.20866C6.37302 7.09245 6.53572 7.09245 6.57888 7.20866L10.5201 18.0462ZM27.5068 21.2337C26.3181 21.2337 25.1759 20.8551 24.2828 20.1712H30.7275C29.8377 20.8551 28.6922 21.2337 27.5068 21.2337ZM23.4593 18.0462L27.3906 7.24186C27.4338 7.12565 27.5965 7.12565 27.6396 7.24186L31.5709 18.0462H23.4593Z" fill="white"/>
</g>
<defs>
<clipPath id="clip0_2209_1049">
<rect width="34" height="34" fill="white"/>
</clipPath>
</defs>
</svg>
