<svg width="37" height="37" viewBox="0 0 37 37" fill="none" xmlns="http://www.w3.org/2000/svg">
<path d="M29.3687 9.92568V5.61865C29.3687 3.79395 27.8837 2.3125 26.0554 2.3125H10.9446C9.11631 2.3125 7.63125 3.79756 7.63125 5.61865V9.92568H2.3125V18.5759H4.46963V32.4147C4.46963 33.6722 5.43437 34.6875 6.62676 34.6875H30.3696C31.562 34.6875 32.5268 33.6722 32.5268 32.4147V18.5759H34.6875V9.92568H29.3687ZM9.94375 5.61865C9.94375 5.06582 10.3918 4.61777 10.9446 4.61777H26.0518C26.6046 4.61777 27.0526 5.06582 27.0526 5.61865V9.92568H9.94375V5.61865ZM30.2179 32.3822H6.78213V18.5759H14.2002V21.7556C14.2002 22.9407 15.1613 23.9019 16.3501 23.9019H20.6499C21.8387 23.9019 22.7998 22.9443 22.7998 21.7556V18.5759H30.2179V32.3822ZM32.375 15.66V16.267H22.7998V15.3203C22.7998 14.9229 22.6914 14.5507 22.5035 14.2327C22.1313 13.6004 21.4412 13.1776 20.6499 13.1776H16.3501C15.5624 13.1776 14.8723 13.6004 14.4965 14.2327C14.3086 14.5507 14.2002 14.9229 14.2002 15.3203V16.267H4.625V12.2346H32.375V15.66Z" fill="white"/>
</svg>
