<svg width="34" height="34" viewBox="0 0 34 34" fill="none" xmlns="http://www.w3.org/2000/svg">
<g clip-path="url(#clip0_2209_1047)">
<path d="M13.6 24.9333L14.7333 27.2H5.66668V31.7333H28.3333V27.2H19.2667L20.4 24.9333H28.3333C28.9345 24.9333 29.511 25.1721 29.9361 25.5972C30.3612 26.0223 30.6 26.5988 30.6 27.2V31.7333C30.6 32.3345 30.3612 32.911 29.9361 33.3361C29.511 33.7612 28.9345 34 28.3333 34H5.66668C5.06552 34 4.48898 33.7612 4.06389 33.3361C3.63881 32.911 3.4 32.3345 3.4 31.7333V27.2C3.4 26.5988 3.63881 26.0223 4.06389 25.5972C4.48898 25.1721 5.06552 24.9333 5.66668 24.9333H13.6ZM9.06668 2.26668H24.9333C25.5345 2.26668 26.111 2.50548 26.5361 2.93056C26.9612 3.35564 27.2 3.93217 27.2 4.53332V20.4C27.2 21.0012 26.9612 21.5777 26.5361 22.0028C26.111 22.4279 25.5345 22.6667 24.9333 22.6667H9.06668C8.46552 22.6667 7.88898 22.4279 7.46389 22.0028C7.03881 21.5777 6.8 21.0012 6.8 20.4V4.53332C6.80001 3.93217 7.03882 3.35564 7.46391 2.93056C7.88899 2.50548 8.46552 2.26668 9.06668 2.26668ZM9.06668 4.53332V20.4H24.9333V4.53332H9.06668ZM29.4667 7.93332C29.6155 7.93332 29.7629 7.96264 29.9004 8.01959C30.0379 8.07655 30.1628 8.16003 30.2681 8.26528C30.3733 8.37052 30.4568 8.49546 30.5137 8.63296C30.5707 8.77047 30.6 8.91784 30.6 9.06668V15.8667C30.6 16.1673 30.4806 16.4555 30.2681 16.6681C30.0555 16.8806 29.7672 17 29.4667 17C29.1661 17 28.8778 16.8806 28.6653 16.6681C28.4527 16.4555 28.3333 16.1673 28.3333 15.8667V9.06668C28.3333 8.91784 28.3626 8.77046 28.4196 8.63296C28.4765 8.49545 28.56 8.37051 28.6653 8.26526C28.7705 8.16002 28.8955 8.07654 29.033 8.01958C29.1705 7.96263 29.3178 7.93332 29.4667 7.93332ZM4.53332 7.93332C4.68216 7.93332 4.82954 7.96263 4.96704 8.01958C5.10455 8.07654 5.22949 8.16002 5.33474 8.26526C5.43998 8.37051 5.52346 8.49545 5.58041 8.63296C5.63737 8.77046 5.66668 8.91784 5.66668 9.06668V15.8667C5.66668 16.1673 5.54727 16.4555 5.33473 16.6681C5.12219 16.8806 4.83392 17 4.53334 17C4.23276 17 3.94449 16.8806 3.73195 16.6681C3.5194 16.4555 3.4 16.1673 3.4 15.8667V9.06668C3.4 8.91784 3.42931 8.77047 3.48626 8.63296C3.54321 8.49546 3.62669 8.37052 3.73193 8.26528C3.83717 8.16003 3.96211 8.07655 4.09961 8.01959C4.23711 7.96264 4.38449 7.93332 4.53332 7.93332ZM32.8667 10.2C33.0155 10.2 33.1629 10.2293 33.3004 10.2863C33.4379 10.3432 33.5628 10.4267 33.6681 10.5319C33.7733 10.6372 33.8568 10.7621 33.9137 10.8996C33.9707 11.0371 34 11.1845 34 11.3333V13.6C34 13.9006 33.8806 14.1888 33.6681 14.4014C33.4555 14.6139 33.1672 14.7333 32.8667 14.7333C32.5661 14.7333 32.2778 14.6139 32.0653 14.4014C31.8527 14.1888 31.7333 13.9006 31.7333 13.6V11.3333C31.7333 11.1845 31.7626 11.0371 31.8196 10.8996C31.8766 10.7621 31.96 10.6372 32.0653 10.5319C32.1705 10.4267 32.2955 10.3432 32.433 10.2863C32.5705 10.2293 32.7178 10.2 32.8667 10.2ZM1.13332 10.2C1.28216 10.2 1.42953 10.2293 1.56704 10.2863C1.70454 10.3432 1.82948 10.4267 1.93472 10.5319C2.03997 10.6372 2.12345 10.7621 2.18041 10.8996C2.23736 11.0371 2.26668 11.1845 2.26668 11.3333V13.6C2.26668 13.9006 2.14727 14.1888 1.93473 14.4014C1.72219 14.6139 1.43392 14.7333 1.13334 14.7333C0.832759 14.7333 0.54449 14.6139 0.331947 14.4014C0.119405 14.1888 0 13.9006 0 13.6V11.3333C0 11.1845 0.0293142 11.0371 0.086269 10.8996C0.143224 10.7621 0.226704 10.6372 0.331942 10.5319C0.437181 10.4267 0.562118 10.3432 0.699619 10.2863C0.83712 10.2293 0.984492 10.2 1.13332 10.2ZM12.4667 13.6C12.6899 13.6 12.911 13.556 13.1172 13.4706C13.3235 13.3852 13.5109 13.2599 13.6688 13.1021C13.8266 12.9442 13.9518 12.7568 14.0373 12.5506C14.1227 12.3443 14.1667 12.1232 14.1667 11.9C14.1667 11.6768 14.1227 11.4557 14.0373 11.2494C13.9518 11.0432 13.8266 10.8558 13.6688 10.6979C13.5109 10.5401 13.3235 10.4148 13.1172 10.3294C12.911 10.244 12.6899 10.2 12.4667 10.2C12.0158 10.2 11.5834 10.3791 11.2646 10.6979C10.9458 11.0167 10.7667 11.4491 10.7667 11.9C10.7667 12.3509 10.9458 12.7833 11.2646 13.1021C11.5834 13.4209 12.0158 13.6 12.4667 13.6ZM21.5333 13.6C21.7566 13.6 21.9776 13.556 22.1839 13.4706C22.3901 13.3852 22.5775 13.2599 22.7354 13.1021C22.8933 12.9442 23.0185 12.7568 23.1039 12.5506C23.1894 12.3443 23.2333 12.1232 23.2333 11.9C23.2333 11.6768 23.1894 11.4557 23.1039 11.2494C23.0185 11.0432 22.8933 10.8558 22.7354 10.6979C22.5775 10.5401 22.3901 10.4148 22.1839 10.3294C21.9776 10.244 21.7566 10.2 21.5333 10.2C21.0825 10.2 20.6501 10.3791 20.3312 10.6979C20.0124 11.0167 19.8333 11.4491 19.8333 11.9C19.8333 12.3509 20.0124 12.7833 20.3312 13.1021C20.6501 13.4209 21.0825 13.6 21.5333 13.6ZM17 0C17.1488 0 17.2962 0.0293142 17.4337 0.086269C17.5712 0.143224 17.6961 0.226704 17.8014 0.331942C17.9066 0.437181 17.9901 0.562118 18.0471 0.699619C18.104 0.83712 18.1333 0.984492 18.1333 1.13332V3.4C18.1333 3.70058 18.0139 3.98884 17.8014 4.20138C17.5888 4.41392 17.3006 4.53332 17 4.53332C16.6994 4.53332 16.4112 4.41392 16.1986 4.20138C15.9861 3.98884 15.8667 3.70058 15.8667 3.4V1.13332C15.8667 0.832747 15.9861 0.544482 16.1986 0.331942C16.4112 0.119403 16.6994 0 17 0ZM14.7333 20.4C14.8822 20.4 15.0295 20.4293 15.167 20.4863C15.3045 20.5432 15.4295 20.6267 15.5347 20.7319C15.64 20.8372 15.7234 20.9621 15.7804 21.0996C15.8374 21.2371 15.8667 21.3845 15.8667 21.5333V26.0667C15.8667 26.3673 15.7473 26.6555 15.5347 26.8681C15.3222 27.0806 15.0339 27.2 14.7333 27.2C14.4327 27.2 14.1445 27.0806 13.9319 26.8681C13.7194 26.6555 13.6 26.3673 13.6 26.0667V21.5333C13.6 21.2327 13.7194 20.9445 13.9319 20.7319C14.1445 20.5194 14.4327 20.4 14.7333 20.4ZM19.2667 20.4C19.5673 20.4 19.8555 20.5194 20.0681 20.7319C20.2806 20.9445 20.4 21.2327 20.4 21.5333V26.0667C20.4 26.3673 20.2806 26.6555 20.0681 26.8681C19.8555 27.0806 19.5673 27.2 19.2667 27.2C18.9661 27.2 18.6778 27.0806 18.4653 26.8681C18.2527 26.6555 18.1333 26.3673 18.1333 26.0667V21.5333C18.1333 21.3845 18.1626 21.2371 18.2196 21.0996C18.2766 20.9621 18.36 20.8372 18.4653 20.7319C18.5705 20.6267 18.6955 20.5432 18.833 20.4863C18.9705 20.4293 19.1178 20.4 19.2667 20.4Z" fill="white"/>
</g>
<defs>
<clipPath id="clip0_2209_1047">
<rect width="34" height="34" fill="white"/>
</clipPath>
</defs>
</svg>
