<svg width="40" height="40" viewBox="0 0 40 40" fill="none" xmlns="http://www.w3.org/2000/svg">
<g clip-path="url(#clip0_2209_1043)">
<path d="M33.4043 35.3887L32.6172 35.1758L32.6152 35.1748L32.4297 35.1299C30.5682 34.7285 28.6887 35.8088 28.1006 37.627L28.0459 37.8115L27.8301 38.6152L24.9805 33.6777C27.0228 32.9926 28.9472 31.9873 30.6895 30.6807L33.4043 35.3887ZM10.4131 31.334C12.2292 32.5406 14.2163 33.4402 16.3105 34.0117L13.6562 38.6084L13.4424 37.8076C13.1854 36.8413 12.5625 36.0375 11.7012 35.543C11.1307 35.2155 10.4905 35.043 9.84375 35.043C9.51738 35.043 9.19831 35.0862 8.88965 35.1621L8.87891 35.1641L8.86719 35.168L8.07715 35.3818L10.4131 31.334ZM20.1719 5C23.4195 5 26.4745 6.2214 28.8174 8.45605L29.042 8.67578H29.043C31.418 11.0508 32.7188 14.1911 32.7188 17.5469C32.7188 20.2994 31.8373 22.9139 30.2119 25.0732L29.4277 25.9365L29.4268 25.9375C27.5239 28.0367 24.9457 29.4218 22.1211 29.8672L21.5527 29.9434L20.4277 30.0684L19.6758 30.04H19.6768C16.7822 29.9245 14.0461 28.8346 11.9092 26.9609L11.4902 26.5762L10.9326 26.0371C8.79895 23.7119 7.62891 20.722 7.62891 17.5469C7.62891 14.2993 8.8503 11.2443 11.085 8.90137L11.3047 8.67676L11.3057 8.67578C13.6764 6.30143 16.8198 5 20.1719 5ZM20.1719 8.92578C15.4204 8.92578 11.5547 12.7915 11.5547 17.543C11.5547 22.2945 15.4204 26.1602 20.1719 26.1602V26.1592C24.9284 26.1631 28.7891 22.2972 28.7891 17.543C28.7891 12.7915 24.9234 8.92578 20.1719 8.92578ZM20.1719 14.3125C21.9522 14.3125 23.4062 15.7638 23.4062 17.5469C23.4062 19.3299 21.9522 20.7812 20.1719 20.7812C18.3888 20.7812 16.9375 19.3272 16.9375 17.5469C16.9375 15.7638 18.3915 14.3125 20.1719 14.3125Z" stroke="white" stroke-width="2"/>
</g>
<defs>
<clipPath id="clip0_2209_1043">
<rect width="40" height="40" fill="white"/>
</clipPath>
</defs>
</svg>
