<svg width="323" height="29" viewBox="0 0 323 29" fill="none" xmlns="http://www.w3.org/2000/svg">
<path d="M2.50781 18.7422C1.55469 18.3672 0.898438 17.8594 0.539062 17.2188C0.179688 16.5781 0.03125 15.8672 0.09375 15.0859C0.171875 14.2891 0.421875 13.4453 0.84375 12.5547C1.28125 11.6484 1.8125 10.7422 2.4375 9.83594C3.07812 8.92969 3.78125 8.04688 4.54688 7.1875C5.3125 6.32812 6.07031 5.53906 6.82031 4.82031C7.57031 4.10156 8.27344 3.47656 8.92969 2.94531C9.58594 2.41406 10.1172 2.02344 10.5234 1.77344C11.0859 1.42969 11.5547 1.26563 11.9297 1.28125C12.3047 1.28125 12.6016 1.39844 12.8203 1.63281C13.0547 1.85156 13.2109 2.16406 13.2891 2.57031C13.3828 2.96094 13.4219 3.38281 13.4062 3.83594C13.4062 4.27344 13.3594 4.71875 13.2656 5.17188C13.1875 5.60938 13.0781 5.99219 12.9375 6.32031C12.8125 6.64844 12.6719 6.89062 12.5156 7.04688C12.375 7.20312 12.2344 7.21094 12.0938 7.07031C12.0781 6.94531 12.0938 6.75781 12.1406 6.50781C12.1875 6.24219 12.2422 5.94531 12.3047 5.61719C12.3828 5.28906 12.4531 4.95312 12.5156 4.60938C12.5781 4.26563 12.6172 3.95312 12.6328 3.67188C12.6641 3.375 12.6562 3.125 12.6094 2.92188C12.5781 2.71875 12.4922 2.60156 12.3516 2.57031C11.8047 2.42969 11.1484 2.5625 10.3828 2.96875C9.63281 3.35937 8.84375 3.92969 8.01562 4.67969C7.20312 5.41406 6.39062 6.27344 5.57812 7.25781C4.78125 8.22656 4.05469 9.22656 3.39844 10.2578C2.74219 11.2891 2.20312 12.2969 1.78125 13.2812C1.35938 14.25 1.11719 15.1094 1.05469 15.8594C1.00781 16.5938 1.17188 17.1641 1.54688 17.5703C1.9375 17.9609 2.61719 18.0859 3.58594 17.9453C4.47656 17.8203 5.29688 17.5078 6.04688 17.0078C6.8125 16.4922 7.54688 15.9297 8.25 15.3203C8.96875 14.6953 9.67969 14.0859 10.3828 13.4922C11.0859 12.8828 11.8203 12.4219 12.5859 12.1094C12.8672 12 13.0859 12.0391 13.2422 12.2266C13.4141 12.4141 13.4609 12.6406 13.3828 12.9062C13.2891 13.1719 13.0078 13.5234 12.5391 13.9609C12.0859 14.3984 11.5156 14.8594 10.8281 15.3438C10.1562 15.8125 9.41406 16.2891 8.60156 16.7734C7.78906 17.2422 6.99219 17.6484 6.21094 17.9922C5.44531 18.3359 4.72656 18.5859 4.05469 18.7422C3.39844 18.8984 2.88281 18.8984 2.50781 18.7422ZM16.6875 18.7422C16.0312 18.4766 15.6172 18.0781 15.4453 17.5469C15.2891 17.0156 15.2969 16.4297 15.4688 15.7891C15.6406 15.1328 15.9375 14.4609 16.3594 13.7734C16.7812 13.0703 17.25 12.4297 17.7656 11.8516C18.2812 11.2734 18.7969 10.7891 19.3125 10.3984C19.8438 9.99219 20.2969 9.76562 20.6719 9.71875C21.6406 9.59375 22.3984 9.66406 22.9453 9.92969C23.5078 10.1797 23.8906 10.5469 24.0938 11.0312C24.2969 11.5156 24.3516 12.0859 24.2578 12.7422C24.1641 13.3828 23.9531 14.0312 23.625 14.6875C23.3125 15.3438 22.8984 15.9766 22.3828 16.5859C21.8828 17.1953 21.3203 17.7109 20.6953 18.1328C20.0859 18.5391 19.4375 18.8125 18.75 18.9531C18.0625 19.0781 17.375 19.0078 16.6875 18.7422ZM16.4297 17.4062C16.5547 17.9062 16.8203 18.1875 17.2266 18.25C17.6328 18.2969 18.1016 18.1953 18.6328 17.9453C19.1797 17.6797 19.75 17.3047 20.3438 16.8203C20.9375 16.3203 21.4766 15.7812 21.9609 15.2031C22.4609 14.625 22.8672 14.0469 23.1797 13.4688C23.5078 12.875 23.6641 12.3594 23.6484 11.9219C23.6484 11.4844 23.4375 11.1562 23.0156 10.9375C22.6094 10.7031 21.9219 10.6562 20.9531 10.7969C20.7344 11 20.4531 11.25 20.1094 11.5469C19.7656 11.8281 19.4062 12.1406 19.0312 12.4844C18.6719 12.8281 18.3125 13.2031 17.9531 13.6094C17.5938 14 17.2812 14.4062 17.0156 14.8281C16.75 15.25 16.5547 15.6797 16.4297 16.1172C16.3203 16.5547 16.3203 16.9844 16.4297 17.4062ZM39.4922 18.4609C39.3203 18.2578 39.2188 18.0312 39.1875 17.7812C39.1719 17.5156 39.1875 17.2578 39.2344 17.0078C39.2969 16.7422 39.375 16.4922 39.4688 16.2578C39.5781 16.0078 39.6797 15.7812 39.7734 15.5781C39.8359 15.4219 39.9609 15.1406 40.1484 14.7344C40.3516 14.3125 40.5625 13.875 40.7812 13.4219C41.0156 12.9688 41.2344 12.5469 41.4375 12.1562C41.6406 11.75 41.7812 11.4688 41.8594 11.3125V10.7969C41.7031 10.7188 41.3828 10.8281 40.8984 11.125C40.4141 11.4062 39.8516 11.8047 39.2109 12.3203C38.5703 12.8203 37.8906 13.3828 37.1719 14.0078C36.4531 14.6328 35.7734 15.2344 35.1328 15.8125C34.5078 16.375 33.9609 16.8828 33.4922 17.3359C33.0234 17.7734 32.7266 18.0625 32.6016 18.2031C32.2578 18.3125 32.0312 18.2422 31.9219 17.9922C31.8281 17.7266 31.8047 17.3672 31.8516 16.9141C31.8984 16.4453 31.9922 15.9297 32.1328 15.3672C32.2734 14.7891 32.4141 14.25 32.5547 13.75C32.7109 13.2344 32.8438 12.7969 32.9531 12.4375C33.0781 12.0781 33.1328 11.8828 33.1172 11.8516C32.8047 11.7422 32.4766 11.7812 32.1328 11.9688C31.7891 12.1562 31.4375 12.4375 31.0781 12.8125C30.7188 13.1719 30.3594 13.6016 30 14.1016C29.6406 14.5859 29.2812 15.0781 28.9219 15.5781C28.5625 16.0625 28.2188 16.5312 27.8906 16.9844C27.5625 17.4219 27.25 17.7812 26.9531 18.0625C26.6562 18.3438 26.375 18.5078 26.1094 18.5547C25.8594 18.6016 25.6406 18.4844 25.4531 18.2031C25.4375 18.1875 25.4297 18.1484 25.4297 18.0859C25.4297 18.0234 25.4375 17.9766 25.4531 17.9453C25.5312 17.7891 25.6484 17.5469 25.8047 17.2188C25.9766 16.875 26.1641 16.4922 26.3672 16.0703C26.5703 15.6484 26.7891 15.2109 27.0234 14.7578C27.2578 14.2891 27.4766 13.8516 27.6797 13.4453C27.8984 13.0234 28.0859 12.6484 28.2422 12.3203C28.4141 11.9922 28.5469 11.75 28.6406 11.5938C28.7188 11.4375 28.8281 11.2422 28.9688 11.0078C29.1094 10.7578 29.25 10.5234 29.3906 10.3047C29.5312 10.0703 29.6562 9.875 29.7656 9.71875C29.875 9.54688 29.9297 9.46094 29.9297 9.46094H30.4922C30.6016 9.82031 30.5859 10.1562 30.4453 10.4688C30.3047 10.7812 30.1328 11.0859 29.9297 11.3828C29.7422 11.6797 29.5781 11.9766 29.4375 12.2734C29.3125 12.5547 29.3125 12.8594 29.4375 13.1875C30.7812 12 31.8125 11.125 32.5312 10.5625C33.2656 10 33.7812 9.67969 34.0781 9.60156C34.375 9.52344 34.5156 9.64062 34.5 9.95312C34.4844 10.2656 34.4141 10.6875 34.2891 11.2188C34.1797 11.75 34.0625 12.3594 33.9375 13.0469C33.8281 13.7188 33.8203 14.375 33.9141 15.0156H34.1953C34.2891 14.9531 34.4453 14.8359 34.6641 14.6641C34.8828 14.4922 35.1172 14.3047 35.3672 14.1016C35.6328 13.8984 35.875 13.7109 36.0938 13.5391C36.3281 13.3672 36.4922 13.25 36.5859 13.1875C36.7578 13.0469 37.0078 12.8516 37.3359 12.6016C37.6641 12.3516 37.9922 12.1016 38.3203 11.8516C38.6641 11.5859 38.9688 11.3594 39.2344 11.1719C39.5156 10.9688 39.6953 10.8438 39.7734 10.7969C39.8359 10.75 39.9688 10.6562 40.1719 10.5156C40.3906 10.3594 40.625 10.1953 40.875 10.0234C41.1406 9.85156 41.3906 9.69531 41.625 9.55469C41.8594 9.39844 42.0312 9.28125 42.1406 9.20312C42.375 9.04688 42.5938 8.97656 42.7969 8.99219C43 9.00781 43.1641 9.08594 43.2891 9.22656C43.4297 9.35156 43.5156 9.53125 43.5469 9.76562C43.5781 9.98438 43.5469 10.2344 43.4531 10.5156C43.0781 11.2188 42.7031 11.9062 42.3281 12.5781C41.9688 13.25 41.6328 13.9297 41.3203 14.6172C41.0234 15.2891 40.7734 15.9844 40.5703 16.7031C40.3828 17.4219 40.2812 18.1875 40.2656 19C40.1875 19.0469 40.1016 19.0469 40.0078 19C39.9297 18.9531 39.8516 18.8906 39.7734 18.8125C39.6953 18.7344 39.625 18.6562 39.5625 18.5781C39.5156 18.5 39.4922 18.4609 39.4922 18.4609ZM58.8281 18.4609C58.6562 18.2578 58.5547 18.0312 58.5234 17.7812C58.5078 17.5156 58.5234 17.2578 58.5703 17.0078C58.6328 16.7422 58.7109 16.4922 58.8047 16.2578C58.9141 16.0078 59.0156 15.7812 59.1094 15.5781C59.1719 15.4219 59.2969 15.1406 59.4844 14.7344C59.6875 14.3125 59.8984 13.875 60.1172 13.4219C60.3516 12.9688 60.5703 12.5469 60.7734 12.1562C60.9766 11.75 61.1172 11.4688 61.1953 11.3125V10.7969C61.0391 10.7188 60.7188 10.8281 60.2344 11.125C59.75 11.4062 59.1875 11.8047 58.5469 12.3203C57.9062 12.8203 57.2266 13.3828 56.5078 14.0078C55.7891 14.6328 55.1094 15.2344 54.4688 15.8125C53.8438 16.375 53.2969 16.8828 52.8281 17.3359C52.3594 17.7734 52.0625 18.0625 51.9375 18.2031C51.5938 18.3125 51.3672 18.2422 51.2578 17.9922C51.1641 17.7266 51.1406 17.3672 51.1875 16.9141C51.2344 16.4453 51.3281 15.9297 51.4688 15.3672C51.6094 14.7891 51.75 14.25 51.8906 13.75C52.0469 13.2344 52.1797 12.7969 52.2891 12.4375C52.4141 12.0781 52.4688 11.8828 52.4531 11.8516C52.1406 11.7422 51.8125 11.7812 51.4688 11.9688C51.125 12.1562 50.7734 12.4375 50.4141 12.8125C50.0547 13.1719 49.6953 13.6016 49.3359 14.1016C48.9766 14.5859 48.6172 15.0781 48.2578 15.5781C47.8984 16.0625 47.5547 16.5312 47.2266 16.9844C46.8984 17.4219 46.5859 17.7812 46.2891 18.0625C45.9922 18.3438 45.7109 18.5078 45.4453 18.5547C45.1953 18.6016 44.9766 18.4844 44.7891 18.2031C44.7734 18.1875 44.7656 18.1484 44.7656 18.0859C44.7656 18.0234 44.7734 17.9766 44.7891 17.9453C44.8672 17.7891 44.9844 17.5469 45.1406 17.2188C45.3125 16.875 45.5 16.4922 45.7031 16.0703C45.9062 15.6484 46.125 15.2109 46.3594 14.7578C46.5938 14.2891 46.8125 13.8516 47.0156 13.4453C47.2344 13.0234 47.4219 12.6484 47.5781 12.3203C47.75 11.9922 47.8828 11.75 47.9766 11.5938C48.0547 11.4375 48.1641 11.2422 48.3047 11.0078C48.4453 10.7578 48.5859 10.5234 48.7266 10.3047C48.8672 10.0703 48.9922 9.875 49.1016 9.71875C49.2109 9.54688 49.2656 9.46094 49.2656 9.46094H49.8281C49.9375 9.82031 49.9219 10.1562 49.7812 10.4688C49.6406 10.7812 49.4688 11.0859 49.2656 11.3828C49.0781 11.6797 48.9141 11.9766 48.7734 12.2734C48.6484 12.5547 48.6484 12.8594 48.7734 13.1875C50.1172 12 51.1484 11.125 51.8672 10.5625C52.6016 10 53.1172 9.67969 53.4141 9.60156C53.7109 9.52344 53.8516 9.64062 53.8359 9.95312C53.8203 10.2656 53.75 10.6875 53.625 11.2188C53.5156 11.75 53.3984 12.3594 53.2734 13.0469C53.1641 13.7188 53.1562 14.375 53.25 15.0156H53.5312C53.625 14.9531 53.7812 14.8359 54 14.6641C54.2188 14.4922 54.4531 14.3047 54.7031 14.1016C54.9688 13.8984 55.2109 13.7109 55.4297 13.5391C55.6641 13.3672 55.8281 13.25 55.9219 13.1875C56.0938 13.0469 56.3438 12.8516 56.6719 12.6016C57 12.3516 57.3281 12.1016 57.6562 11.8516C58 11.5859 58.3047 11.3594 58.5703 11.1719C58.8516 10.9688 59.0312 10.8438 59.1094 10.7969C59.1719 10.75 59.3047 10.6562 59.5078 10.5156C59.7266 10.3594 59.9609 10.1953 60.2109 10.0234C60.4766 9.85156 60.7266 9.69531 60.9609 9.55469C61.1953 9.39844 61.3672 9.28125 61.4766 9.20312C61.7109 9.04688 61.9297 8.97656 62.1328 8.99219C62.3359 9.00781 62.5 9.08594 62.625 9.22656C62.7656 9.35156 62.8516 9.53125 62.8828 9.76562C62.9141 9.98438 62.8828 10.2344 62.7891 10.5156C62.4141 11.2188 62.0391 11.9062 61.6641 12.5781C61.3047 13.25 60.9688 13.9297 60.6562 14.6172C60.3594 15.2891 60.1094 15.9844 59.9062 16.7031C59.7188 17.4219 59.6172 18.1875 59.6016 19C59.5234 19.0469 59.4375 19.0469 59.3438 19C59.2656 18.9531 59.1875 18.8906 59.1094 18.8125C59.0312 18.7344 58.9609 18.6562 58.8984 18.5781C58.8516 18.5 58.8281 18.4609 58.8281 18.4609ZM73.6641 18.7422C73.2422 18.5703 72.9062 18.3438 72.6562 18.0625C72.4062 17.7812 72.2109 17.4609 72.0703 17.1016C71.9297 16.7422 71.8203 16.3672 71.7422 15.9766C71.6641 15.5703 71.5938 15.1641 71.5312 14.7578C71.3906 14.6641 71.1406 14.7578 70.7812 15.0391C70.4219 15.3047 70.0078 15.6406 69.5391 16.0469C69.0703 16.4531 68.5625 16.875 68.0156 17.3125C67.4844 17.7344 66.9688 18.0469 66.4688 18.25C65.9688 18.4531 65.5078 18.4922 65.0859 18.3672C64.6797 18.2422 64.3594 17.8359 64.125 17.1484C64.0469 16.9141 64.0703 16.5781 64.1953 16.1406C64.3359 15.6875 64.5391 15.1953 64.8047 14.6641C65.0703 14.1328 65.375 13.5859 65.7188 13.0234C66.0781 12.4453 66.4219 11.9141 66.75 11.4297C67.0938 10.9297 67.4062 10.5078 67.6875 10.1641C67.9844 9.80469 68.2109 9.57031 68.3672 9.46094C68.7266 9.63281 68.8828 9.89844 68.8359 10.2578C68.8047 10.6016 68.6641 11 68.4141 11.4531C68.1797 11.9062 67.8672 12.3906 67.4766 12.9062C67.1016 13.4219 66.7422 13.9375 66.3984 14.4531C66.0703 14.9531 65.8047 15.4375 65.6016 15.9062C65.3984 16.375 65.3438 16.7891 65.4375 17.1484C65.7812 17.2891 66.2031 17.2188 66.7031 16.9375C67.2188 16.6406 67.7656 16.2344 68.3438 15.7188C68.9375 15.2031 69.5391 14.6172 70.1484 13.9609C70.7734 13.2891 71.3516 12.6484 71.8828 12.0391C72.4141 11.4141 72.8828 10.8672 73.2891 10.3984C73.6953 9.92969 73.9922 9.61719 74.1797 9.46094C74.5078 9.61719 74.6719 9.875 74.6719 10.2344C74.6719 10.5781 74.5781 10.9766 74.3906 11.4297C74.2188 11.8828 74 12.375 73.7344 12.9062C73.4844 13.4219 73.2656 13.9375 73.0781 14.4531C72.8906 14.9688 72.7812 15.4609 72.75 15.9297C72.7188 16.3984 72.8438 16.8047 73.125 17.1484L73.9219 18.0859H76.2891C76.3984 18.0859 76.4219 18.1328 76.3594 18.2266C76.2969 18.3203 76.2031 18.4219 76.0781 18.5312C75.9688 18.6406 75.8516 18.75 75.7266 18.8594C75.6016 18.9531 75.5312 19 75.5156 19C75.1094 19.0781 74.7812 19.0859 74.5312 19.0234C74.2812 18.9766 73.9922 18.8828 73.6641 18.7422ZM86.2266 18.7422C86.1797 18.2266 86.2188 17.7188 86.3438 17.2188C86.4844 16.7031 86.6641 16.2031 86.8828 15.7188C87.1172 15.2188 87.3594 14.7266 87.6094 14.2422C87.875 13.7422 88.1016 13.2578 88.2891 12.7891C88.4766 12.3047 88.6094 11.8359 88.6875 11.3828C88.7656 10.9141 88.7344 10.4531 88.5938 10C88.2031 9.85938 87.75 9.89062 87.2344 10.0938C86.7344 10.2969 86.2031 10.6094 85.6406 11.0312C85.0781 11.4375 84.4922 11.9219 83.8828 12.4844C83.2891 13.0312 82.7031 13.5938 82.125 14.1719C81.5625 14.7344 81.0234 15.2734 80.5078 15.7891C79.9922 16.3047 79.5234 16.7344 79.1016 17.0781C78.6953 17.4062 78.3516 17.6172 78.0703 17.7109C77.7891 17.7891 77.6016 17.6875 77.5078 17.4062C77.4922 17.3906 77.5781 17.1953 77.7656 16.8203C77.9688 16.4297 78.2109 15.9453 78.4922 15.3672C78.7891 14.7891 79.1094 14.1641 79.4531 13.4922C79.8125 12.8203 80.1484 12.1953 80.4609 11.6172C80.7734 11.0234 81.0469 10.5234 81.2812 10.1172C81.5156 9.71094 81.6641 9.49219 81.7266 9.46094C82.0547 9.67969 82.2188 9.92188 82.2188 10.1875C82.2344 10.4375 82.1953 10.7031 82.1016 10.9844C82.0078 11.25 81.8984 11.5234 81.7734 11.8047C81.6641 12.0859 81.6484 12.3672 81.7266 12.6484C81.9766 12.4766 82.3203 12.2422 82.7578 11.9453C83.2109 11.6328 83.6953 11.3125 84.2109 10.9844C84.7422 10.6562 85.2891 10.3359 85.8516 10.0234C86.4297 9.71094 86.9688 9.46875 87.4688 9.29688C87.9688 9.10938 88.4141 9.00781 88.8047 8.99219C89.2109 8.97656 89.5078 9.09375 89.6953 9.34375C89.8828 9.59375 89.9375 10.0078 89.8594 10.5859C89.7969 11.1484 89.5547 11.9219 89.1328 12.9062C89.0859 13.0156 88.9688 13.2812 88.7812 13.7031C88.6094 14.1094 88.4141 14.5547 88.1953 15.0391C87.9922 15.5078 87.7969 15.9531 87.6094 16.375C87.4375 16.7812 87.3281 17.0391 87.2812 17.1484C87.2656 17.2109 87.2422 17.3281 87.2109 17.5C87.1953 17.6562 87.1719 17.8359 87.1406 18.0391C87.1094 18.2266 87.0625 18.4141 87 18.6016C86.9375 18.7734 86.8594 18.9062 86.7656 19C86.6719 19.0938 86.5625 19.0859 86.4375 18.9766C86.3125 18.8516 86.2422 18.7734 86.2266 18.7422ZM90.8438 18.7422C91.4844 16.6797 92.0625 15.0469 92.5781 13.8438C93.1094 12.625 93.5469 11.7734 93.8906 11.2891C94.25 10.8047 94.4922 10.6484 94.6172 10.8203C94.7422 10.9922 94.7266 11.4297 94.5703 12.1328C94.4297 12.8359 94.1172 13.7812 93.6328 14.9688C93.1641 16.1406 92.5 17.4844 91.6406 19C91.5156 19.0469 91.3672 19.0547 91.1953 19.0234C91.0234 18.9922 90.9062 18.8984 90.8438 18.7422ZM94.9453 7.46875C94.9141 7.39062 94.8984 7.25 94.8984 7.04688C94.8984 6.84375 94.9141 6.71875 94.9453 6.67188C95.3047 6.54688 95.5781 6.53125 95.7656 6.625C95.9531 6.71875 96.0703 6.85938 96.1172 7.04688C96.1641 7.21875 96.1562 7.40625 96.0938 7.60938C96.0469 7.8125 95.9609 7.96875 95.8359 8.07812C95.7109 8.17188 95.5625 8.1875 95.3906 8.125C95.2344 8.04688 95.0859 7.82812 94.9453 7.46875ZM98.6719 18.7422C98.6562 18.7109 98.6484 18.625 98.6484 18.4844C98.6484 18.3438 98.6562 18.25 98.6719 18.2031C98.7188 18.0312 98.8047 17.7344 98.9297 17.3125C99.0547 16.875 99.1875 16.4219 99.3281 15.9531C99.4688 15.4688 99.6016 15.0156 99.7266 14.5938C99.8516 14.1719 99.9375 13.875 99.9844 13.7031C100.047 13.4844 100.117 13.2344 100.195 12.9531C100.273 12.6562 100.289 12.375 100.242 12.1094C100.008 12.0781 99.7188 12.1094 99.375 12.2031C99.0312 12.2812 98.6875 12.3516 98.3438 12.4141C98.0156 12.4609 97.7031 12.4609 97.4062 12.4141C97.125 12.3516 96.9219 12.1641 96.7969 11.8516C96.9844 11.4609 97.2656 11.2109 97.6406 11.1016C98.0156 10.9766 98.4219 10.8906 98.8594 10.8438C99.2969 10.7969 99.7109 10.7266 100.102 10.6328C100.508 10.5391 100.828 10.3281 101.062 10C101.203 9.59375 101.367 9.10156 101.555 8.52344C101.758 7.92969 101.969 7.3125 102.188 6.67188C102.406 6.03125 102.641 5.39844 102.891 4.77344C103.156 4.14844 103.43 3.59375 103.711 3.10938C103.883 3 104.023 2.99219 104.133 3.08594C104.242 3.17969 104.32 3.32031 104.367 3.50781C104.43 3.67969 104.469 3.85938 104.484 4.04688C104.5 4.23438 104.5 4.35938 104.484 4.42188C104.391 4.82813 104.227 5.26562 103.992 5.73438C103.773 6.1875 103.562 6.64844 103.359 7.11719C103.172 7.58594 103.016 8.05469 102.891 8.52344C102.781 8.99219 102.781 9.4375 102.891 9.85938H107.93C107.945 9.85938 107.984 9.91406 108.047 10.0234C108.109 10.1172 108.164 10.1953 108.211 10.2578C108.289 10.4766 108.203 10.625 107.953 10.7031C107.703 10.7812 107.367 10.8359 106.945 10.8672C106.523 10.8828 106.039 10.8984 105.492 10.9141C104.961 10.9141 104.445 10.9531 103.945 11.0312C103.461 11.0938 103.023 11.2109 102.633 11.3828C102.242 11.5391 101.977 11.7812 101.836 12.1094C101.43 13.1562 101.055 14.2109 100.711 15.2734C100.367 16.3203 100.039 17.3828 99.7266 18.4609C99.6953 18.5078 99.6328 18.5859 99.5391 18.6953C99.4453 18.7891 99.3438 18.875 99.2344 18.9531C99.125 19.0156 99.0156 19.0391 98.9062 19.0234C98.8125 19.0078 98.7344 18.9141 98.6719 18.7422ZM102.633 28C102.492 27.7812 102.5 27.4375 102.656 26.9688C102.797 26.5156 103.008 26.0391 103.289 25.5391C103.555 25.0547 103.836 24.5938 104.133 24.1562C104.414 23.7344 104.625 23.4297 104.766 23.2422C104.891 23.0703 105.086 22.8125 105.352 22.4688C105.602 22.125 105.891 21.7344 106.219 21.2969C106.547 20.8594 106.891 20.3984 107.25 19.9141C107.625 19.4297 107.977 18.9766 108.305 18.5547C108.633 18.1172 108.93 17.7266 109.195 17.3828C109.461 17.0391 109.656 16.7812 109.781 16.6094C109.906 16.4688 109.906 16.25 109.781 15.9531C109.656 15.6562 109.461 15.3125 109.195 14.9219C108.945 14.5156 108.656 14.0781 108.328 13.6094C108.016 13.125 107.727 12.6406 107.461 12.1562C107.211 11.6562 107.016 11.1641 106.875 10.6797C106.75 10.1953 106.75 9.74219 106.875 9.32031C107.047 9.19531 107.234 9.27344 107.438 9.55469C107.641 9.82031 107.852 10.1953 108.07 10.6797C108.305 11.1484 108.547 11.6719 108.797 12.25C109.047 12.8125 109.289 13.3281 109.523 13.7969C109.758 14.25 109.984 14.6094 110.203 14.875C110.438 15.1406 110.656 15.1953 110.859 15.0391C111.266 14.7422 111.664 14.3672 112.055 13.9141C112.445 13.4453 112.82 12.9609 113.18 12.4609C113.539 11.9609 113.875 11.4766 114.188 11.0078C114.516 10.5234 114.82 10.1016 115.102 9.74219C115.211 9.60156 115.312 9.50781 115.406 9.46094C115.516 9.39844 115.68 9.40625 115.898 9.48438C116.07 9.54688 116.039 9.82031 115.805 10.3047C115.57 10.7891 115.203 11.4141 114.703 12.1797C114.203 12.9453 113.602 13.8203 112.898 14.8047C112.211 15.7734 111.477 16.7891 110.695 17.8516C109.93 18.8984 109.156 19.9453 108.375 20.9922C107.609 22.0391 106.906 23.0078 106.266 23.8984C105.609 24.8047 105.055 25.5938 104.602 26.2656C104.133 26.9531 103.828 27.4531 103.688 27.7656C103.625 27.9062 103.562 28.0469 103.5 28.1875C103.422 28.3281 103.32 28.4453 103.195 28.5391C103.164 28.5234 103.125 28.4922 103.078 28.4453C103.016 28.3984 102.961 28.3438 102.914 28.2812C102.852 28.2344 102.797 28.1797 102.75 28.1172C102.688 28.0703 102.648 28.0312 102.633 28ZM132.07 18.7422C131.117 18.3672 130.461 17.8594 130.102 17.2188C129.742 16.5781 129.594 15.8672 129.656 15.0859C129.734 14.2891 129.984 13.4453 130.406 12.5547C130.844 11.6484 131.375 10.7422 132 9.83594C132.641 8.92969 133.344 8.04688 134.109 7.1875C134.875 6.32812 135.633 5.53906 136.383 4.82031C137.133 4.10156 137.836 3.47656 138.492 2.94531C139.148 2.41406 139.68 2.02344 140.086 1.77344C140.648 1.42969 141.117 1.26563 141.492 1.28125C141.867 1.28125 142.164 1.39844 142.383 1.63281C142.617 1.85156 142.773 2.16406 142.852 2.57031C142.945 2.96094 142.984 3.38281 142.969 3.83594C142.969 4.27344 142.922 4.71875 142.828 5.17188C142.75 5.60938 142.641 5.99219 142.5 6.32031C142.375 6.64844 142.234 6.89062 142.078 7.04688C141.938 7.20312 141.797 7.21094 141.656 7.07031C141.641 6.94531 141.656 6.75781 141.703 6.50781C141.75 6.24219 141.805 5.94531 141.867 5.61719C141.945 5.28906 142.016 4.95312 142.078 4.60938C142.141 4.26563 142.18 3.95312 142.195 3.67188C142.227 3.375 142.219 3.125 142.172 2.92188C142.141 2.71875 142.055 2.60156 141.914 2.57031C141.367 2.42969 140.711 2.5625 139.945 2.96875C139.195 3.35937 138.406 3.92969 137.578 4.67969C136.766 5.41406 135.953 6.27344 135.141 7.25781C134.344 8.22656 133.617 9.22656 132.961 10.2578C132.305 11.2891 131.766 12.2969 131.344 13.2812C130.922 14.25 130.68 15.1094 130.617 15.8594C130.57 16.5938 130.734 17.1641 131.109 17.5703C131.5 17.9609 132.18 18.0859 133.148 17.9453C134.039 17.8203 134.859 17.5078 135.609 17.0078C136.375 16.4922 137.109 15.9297 137.812 15.3203C138.531 14.6953 139.242 14.0859 139.945 13.4922C140.648 12.8828 141.383 12.4219 142.148 12.1094C142.43 12 142.648 12.0391 142.805 12.2266C142.977 12.4141 143.023 12.6406 142.945 12.9062C142.852 13.1719 142.57 13.5234 142.102 13.9609C141.648 14.3984 141.078 14.8594 140.391 15.3438C139.719 15.8125 138.977 16.2891 138.164 16.7734C137.352 17.2422 136.555 17.6484 135.773 17.9922C135.008 18.3359 134.289 18.5859 133.617 18.7422C132.961 18.8984 132.445 18.8984 132.07 18.7422ZM148.5 18.7422C148.406 18.3516 148.406 17.9062 148.5 17.4062C148.609 16.8906 148.758 16.375 148.945 15.8594C149.133 15.3438 149.336 14.8516 149.555 14.3828C149.773 13.8984 149.953 13.5 150.094 13.1875C150.172 13 150.289 12.7266 150.445 12.3672C150.617 12.0078 150.805 11.6016 151.008 11.1484C151.227 10.6953 151.445 10.2188 151.664 9.71875C151.898 9.21875 152.117 8.74219 152.32 8.28906C152.539 7.83594 152.727 7.4375 152.883 7.09375C153.055 6.73438 153.18 6.46875 153.258 6.29688C152.992 6.25 152.609 6.27344 152.109 6.36719C151.625 6.46094 151.086 6.58594 150.492 6.74219C149.898 6.88281 149.289 7.03125 148.664 7.1875C148.039 7.34375 147.453 7.46094 146.906 7.53906C146.375 7.60156 145.914 7.60938 145.523 7.5625C145.148 7.5 144.914 7.33594 144.82 7.07031C144.93 6.86719 145.328 6.63281 146.016 6.36719C146.703 6.10156 147.578 5.82812 148.641 5.54688C149.719 5.25 150.914 4.95312 152.227 4.65625C153.555 4.35938 154.906 4.07813 156.281 3.8125C157.656 3.54687 159 3.30469 160.312 3.08594C161.625 2.86719 162.797 2.6875 163.828 2.54688C164.859 2.40625 165.688 2.3125 166.312 2.26562C166.953 2.21875 167.289 2.23437 167.32 2.3125C167.367 2.4375 167.375 2.59375 167.344 2.78125C167.312 2.95313 167.211 3.0625 167.039 3.10938C166.273 3.23438 165.445 3.375 164.555 3.53125C163.664 3.67188 162.758 3.82812 161.836 4C160.93 4.15625 160.039 4.32031 159.164 4.49219C158.289 4.64844 157.477 4.80469 156.727 4.96094C156.242 5.05469 155.773 5.33594 155.32 5.80469C154.867 6.27344 154.43 6.85938 154.008 7.5625C153.586 8.25 153.18 9.02344 152.789 9.88281C152.398 10.7266 152.023 11.5859 151.664 12.4609C151.32 13.3359 151 14.1797 150.703 14.9922C150.406 15.8047 150.133 16.5234 149.883 17.1484C149.633 17.7578 149.414 18.2344 149.227 18.5781C149.039 18.9219 148.883 19.0625 148.758 19C148.727 18.9688 148.68 18.9219 148.617 18.8594C148.555 18.7969 148.516 18.7578 148.5 18.7422ZM159.75 18.7422C158.969 18.4141 158.453 17.9609 158.203 17.3828C157.953 16.7891 157.867 16.1562 157.945 15.4844C158.023 14.7969 158.211 14.1094 158.508 13.4219C158.82 12.7344 159.141 12.125 159.469 11.5938C159.578 11.4062 159.781 11.0859 160.078 10.6328C160.375 10.1797 160.688 9.70312 161.016 9.20312C161.359 8.6875 161.68 8.21094 161.977 7.77344C162.289 7.32031 162.508 7.00781 162.633 6.83594C162.82 5.63281 163.195 4.67969 163.758 3.97656C164.32 3.25781 164.953 2.76563 165.656 2.5C166.375 2.23437 167.109 2.17969 167.859 2.33594C168.609 2.47656 169.266 2.8125 169.828 3.34375C170.391 3.85938 170.797 4.55469 171.047 5.42969C171.297 6.30469 171.273 7.32812 170.977 8.5C170.695 9.67188 170.086 10.9844 169.148 12.4375C168.211 13.8906 166.836 15.4609 165.023 17.1484C164.711 17.4453 164.336 17.7344 163.898 18.0156C163.477 18.2812 163.023 18.5 162.539 18.6719C162.07 18.8438 161.594 18.9453 161.109 18.9766C160.625 19.0078 160.172 18.9297 159.75 18.7422ZM158.93 16.8906C159.086 17.5938 159.383 18.0312 159.82 18.2031C160.258 18.375 160.773 18.3438 161.367 18.1094C161.961 17.875 162.609 17.4766 163.312 16.9141C164.016 16.3516 164.719 15.6953 165.422 14.9453C166.125 14.1797 166.797 13.3516 167.438 12.4609C168.078 11.5703 168.633 10.6875 169.102 9.8125C169.586 8.9375 169.953 8.10156 170.203 7.30469C170.453 6.50781 170.531 5.82031 170.438 5.24219C170.359 4.64844 170.078 4.20312 169.594 3.90625C169.125 3.60938 168.398 3.52344 167.414 3.64844C167.055 3.96094 166.578 4.42188 165.984 5.03125C165.391 5.625 164.758 6.30469 164.086 7.07031C163.414 7.83594 162.742 8.66406 162.07 9.55469C161.398 10.4297 160.805 11.3047 160.289 12.1797C159.773 13.0547 159.383 13.8984 159.117 14.7109C158.852 15.5234 158.789 16.25 158.93 16.8906ZM180.633 23.3359C180.586 23.3047 180.516 23.2266 180.422 23.1016C180.312 22.9922 180.227 22.875 180.164 22.75C180.102 22.625 180.078 22.5156 180.094 22.4219C180.094 22.3281 180.18 22.2812 180.352 22.2812C180.68 22.7344 181.141 22.9062 181.734 22.7969C182.328 22.6875 182.969 22.4141 183.656 21.9766C184.344 21.5547 185.039 21.0156 185.742 20.3594C186.461 19.7188 187.102 19.0781 187.664 18.4375C188.242 17.7969 188.711 17.2188 189.07 16.7031C189.445 16.1875 189.633 15.8438 189.633 15.6719C189.633 15.625 189.57 15.5547 189.445 15.4609C189.32 15.3516 189.172 15.2422 189 15.1328C188.844 15.0234 188.695 14.9219 188.555 14.8281C188.414 14.7344 188.328 14.6641 188.297 14.6172C188.344 14.4609 188.492 14.3438 188.742 14.2656C188.992 14.1719 189.273 14.0938 189.586 14.0312C189.898 13.9531 190.203 13.8828 190.5 13.8203C190.812 13.7422 191.047 13.6484 191.203 13.5391C192.031 12.3359 192.75 11.2578 193.359 10.3047C193.984 9.33594 194.57 8.39062 195.117 7.46875C195.68 6.53125 196.25 5.57031 196.828 4.58594C197.406 3.60156 198.07 2.49219 198.82 1.25781C199.023 0.914063 199.188 0.796875 199.312 0.90625C199.438 1.01562 199.531 1.28125 199.594 1.70312C199.656 2.125 199.695 2.66406 199.711 3.32031C199.727 3.96094 199.727 4.65625 199.711 5.40625C199.695 6.15625 199.664 6.92188 199.617 7.70312C199.586 8.48438 199.547 9.20312 199.5 9.85938C199.469 10.5156 199.438 11.0859 199.406 11.5703C199.391 12.0391 199.391 12.3438 199.406 12.4844C199.469 13.2812 199.508 13.9766 199.523 14.5703C199.555 15.1484 199.633 15.6875 199.758 16.1875C199.883 16.6719 200.094 17.1484 200.391 17.6172C200.703 18.0703 201.172 18.5703 201.797 19.1172C201.281 19.2891 200.852 19.2734 200.508 19.0703C200.18 18.8828 199.906 18.5938 199.688 18.2031C199.484 17.7969 199.312 17.3359 199.172 16.8203C199.047 16.2891 198.922 15.7812 198.797 15.2969C198.688 14.7969 198.555 14.3672 198.398 14.0078C198.258 13.6328 198.062 13.3906 197.812 13.2812C197.797 13.2812 197.75 13.2812 197.672 13.2812C197.609 13.2656 197.531 13.2578 197.438 13.2578C197.359 13.2578 197.281 13.2656 197.203 13.2812C197.125 13.2812 197.07 13.2812 197.039 13.2812C196.898 13.3125 196.633 13.375 196.242 13.4688C195.867 13.5625 195.453 13.6641 195 13.7734C194.547 13.8828 194.109 13.9922 193.688 14.1016C193.281 14.2109 192.984 14.2891 192.797 14.3359C192.406 14.4453 191.992 14.6953 191.555 15.0859C191.133 15.4766 190.68 15.9531 190.195 16.5156C189.727 17.0625 189.234 17.6641 188.719 18.3203C188.219 18.9766 187.703 19.6172 187.172 20.2422C186.641 20.8672 186.102 21.4453 185.555 21.9766C185.008 22.5078 184.461 22.9375 183.914 23.2656C183.367 23.5938 182.82 23.7734 182.273 23.8047C181.711 23.8516 181.164 23.6953 180.633 23.3359ZM193.336 13.0234C193.367 13.0391 193.445 13.0469 193.57 13.0469C193.711 13.0469 193.805 13.0391 193.852 13.0234C194.133 12.9766 194.484 12.9219 194.906 12.8594C195.328 12.7969 195.75 12.7266 196.172 12.6484C196.594 12.5547 196.984 12.4531 197.344 12.3438C197.703 12.2188 197.953 12.0859 198.094 11.9453C198.094 11.9453 198.117 11.7812 198.164 11.4531C198.211 11.125 198.266 10.7109 198.328 10.2109C198.391 9.69531 198.453 9.13281 198.516 8.52344C198.594 7.89844 198.664 7.28906 198.727 6.69531C198.789 6.10156 198.836 5.55469 198.867 5.05469C198.914 4.53906 198.945 4.14062 198.961 3.85938C198.789 3.78125 198.562 3.98438 198.281 4.46875C198 4.9375 197.633 5.58594 197.18 6.41406C196.742 7.24219 196.203 8.21094 195.562 9.32031C194.938 10.4141 194.195 11.5547 193.336 12.7422V13.0234ZM203.625 18.7422C203.172 18.4141 202.875 18 202.734 17.5C202.609 17 202.594 16.4609 202.688 15.8828C202.781 15.2891 202.945 14.6797 203.18 14.0547C203.43 13.4297 203.695 12.8281 203.977 12.25C204.273 11.6719 204.555 11.1406 204.82 10.6562C205.102 10.1719 205.32 9.77344 205.477 9.46094C205.523 9.36719 205.633 9.14062 205.805 8.78125C205.992 8.42188 206.188 8.03125 206.391 7.60938C206.594 7.1875 206.781 6.79688 206.953 6.4375C207.141 6.0625 207.258 5.82812 207.305 5.73438C207.352 5.65625 207.414 5.50781 207.492 5.28906C207.586 5.05469 207.688 4.80469 207.797 4.53906C207.906 4.27344 208.023 4.02344 208.148 3.78906C208.289 3.53906 208.43 3.35937 208.57 3.25C208.727 3.14063 208.875 3.125 209.016 3.20312C209.172 3.28125 209.32 3.51563 209.461 3.90625C209.398 4.0625 209.242 4.375 208.992 4.84375C208.758 5.3125 208.477 5.875 208.148 6.53125C207.82 7.1875 207.453 7.91406 207.047 8.71094C206.656 9.50781 206.273 10.3125 205.898 11.125C205.523 11.9375 205.172 12.7344 204.844 13.5156C204.516 14.2812 204.242 14.9844 204.023 15.625C203.82 16.25 203.695 16.7734 203.648 17.1953C203.617 17.6016 203.695 17.8516 203.883 17.9453C204.102 18.0547 204.383 18.1016 204.727 18.0859C205.086 18.0547 205.453 18.0078 205.828 17.9453C206.203 17.8828 206.57 17.8203 206.93 17.7578C207.289 17.6797 207.602 17.6484 207.867 17.6641C207.93 17.8047 207.883 17.9453 207.727 18.0859C207.57 18.2109 207.352 18.3281 207.07 18.4375C206.789 18.5312 206.461 18.6172 206.086 18.6953C205.727 18.7578 205.375 18.8047 205.031 18.8359C204.703 18.8672 204.406 18.875 204.141 18.8594C203.891 18.8438 203.719 18.8047 203.625 18.7422ZM211.312 18.7422C210.859 18.4141 210.562 18 210.422 17.5C210.297 17 210.281 16.4609 210.375 15.8828C210.469 15.2891 210.633 14.6797 210.867 14.0547C211.117 13.4297 211.383 12.8281 211.664 12.25C211.961 11.6719 212.242 11.1406 212.508 10.6562C212.789 10.1719 213.008 9.77344 213.164 9.46094C213.211 9.36719 213.32 9.14062 213.492 8.78125C213.68 8.42188 213.875 8.03125 214.078 7.60938C214.281 7.1875 214.469 6.79688 214.641 6.4375C214.828 6.0625 214.945 5.82812 214.992 5.73438C215.039 5.65625 215.102 5.50781 215.18 5.28906C215.273 5.05469 215.375 4.80469 215.484 4.53906C215.594 4.27344 215.711 4.02344 215.836 3.78906C215.977 3.53906 216.117 3.35937 216.258 3.25C216.414 3.14063 216.562 3.125 216.703 3.20312C216.859 3.28125 217.008 3.51563 217.148 3.90625C217.086 4.0625 216.93 4.375 216.68 4.84375C216.445 5.3125 216.164 5.875 215.836 6.53125C215.508 7.1875 215.141 7.91406 214.734 8.71094C214.344 9.50781 213.961 10.3125 213.586 11.125C213.211 11.9375 212.859 12.7344 212.531 13.5156C212.203 14.2812 211.93 14.9844 211.711 15.625C211.508 16.25 211.383 16.7734 211.336 17.1953C211.305 17.6016 211.383 17.8516 211.57 17.9453C211.789 18.0547 212.07 18.1016 212.414 18.0859C212.773 18.0547 213.141 18.0078 213.516 17.9453C213.891 17.8828 214.258 17.8203 214.617 17.7578C214.977 17.6797 215.289 17.6484 215.555 17.6641C215.617 17.8047 215.57 17.9453 215.414 18.0859C215.258 18.2109 215.039 18.3281 214.758 18.4375C214.477 18.5312 214.148 18.6172 213.773 18.6953C213.414 18.7578 213.062 18.8047 212.719 18.8359C212.391 18.8672 212.094 18.875 211.828 18.8594C211.578 18.8438 211.406 18.8047 211.312 18.7422ZM244.852 18.4609C244.68 18.2578 244.578 18.0312 244.547 17.7812C244.531 17.5156 244.547 17.2578 244.594 17.0078C244.656 16.7422 244.734 16.4922 244.828 16.2578C244.938 16.0078 245.039 15.7812 245.133 15.5781C245.195 15.4219 245.32 15.1406 245.508 14.7344C245.711 14.3125 245.922 13.875 246.141 13.4219C246.375 12.9688 246.594 12.5469 246.797 12.1562C247 11.75 247.141 11.4688 247.219 11.3125V10.7969C247.062 10.7188 246.742 10.8281 246.258 11.125C245.773 11.4062 245.211 11.8047 244.57 12.3203C243.93 12.8203 243.25 13.3828 242.531 14.0078C241.812 14.6328 241.133 15.2344 240.492 15.8125C239.867 16.375 239.32 16.8828 238.852 17.3359C238.383 17.7734 238.086 18.0625 237.961 18.2031C237.617 18.3125 237.391 18.2422 237.281 17.9922C237.188 17.7266 237.164 17.3672 237.211 16.9141C237.258 16.4453 237.352 15.9297 237.492 15.3672C237.633 14.7891 237.773 14.25 237.914 13.75C238.07 13.2344 238.203 12.7969 238.312 12.4375C238.438 12.0781 238.492 11.8828 238.477 11.8516C238.164 11.7422 237.836 11.7812 237.492 11.9688C237.148 12.1562 236.797 12.4375 236.438 12.8125C236.078 13.1719 235.719 13.6016 235.359 14.1016C235 14.5859 234.641 15.0781 234.281 15.5781C233.922 16.0625 233.578 16.5312 233.25 16.9844C232.922 17.4219 232.609 17.7812 232.312 18.0625C232.016 18.3438 231.734 18.5078 231.469 18.5547C231.219 18.6016 231 18.4844 230.812 18.2031C230.797 18.1875 230.789 18.1484 230.789 18.0859C230.789 18.0234 230.797 17.9766 230.812 17.9453C230.891 17.7891 231.008 17.5469 231.164 17.2188C231.336 16.875 231.523 16.4922 231.727 16.0703C231.93 15.6484 232.148 15.2109 232.383 14.7578C232.617 14.2891 232.836 13.8516 233.039 13.4453C233.258 13.0234 233.445 12.6484 233.602 12.3203C233.773 11.9922 233.906 11.75 234 11.5938C234.078 11.4375 234.188 11.2422 234.328 11.0078C234.469 10.7578 234.609 10.5234 234.75 10.3047C234.891 10.0703 235.016 9.875 235.125 9.71875C235.234 9.54688 235.289 9.46094 235.289 9.46094H235.852C235.961 9.82031 235.945 10.1562 235.805 10.4688C235.664 10.7812 235.492 11.0859 235.289 11.3828C235.102 11.6797 234.938 11.9766 234.797 12.2734C234.672 12.5547 234.672 12.8594 234.797 13.1875C236.141 12 237.172 11.125 237.891 10.5625C238.625 10 239.141 9.67969 239.438 9.60156C239.734 9.52344 239.875 9.64062 239.859 9.95312C239.844 10.2656 239.773 10.6875 239.648 11.2188C239.539 11.75 239.422 12.3594 239.297 13.0469C239.188 13.7188 239.18 14.375 239.273 15.0156H239.555C239.648 14.9531 239.805 14.8359 240.023 14.6641C240.242 14.4922 240.477 14.3047 240.727 14.1016C240.992 13.8984 241.234 13.7109 241.453 13.5391C241.688 13.3672 241.852 13.25 241.945 13.1875C242.117 13.0469 242.367 12.8516 242.695 12.6016C243.023 12.3516 243.352 12.1016 243.68 11.8516C244.023 11.5859 244.328 11.3594 244.594 11.1719C244.875 10.9688 245.055 10.8438 245.133 10.7969C245.195 10.75 245.328 10.6562 245.531 10.5156C245.75 10.3594 245.984 10.1953 246.234 10.0234C246.5 9.85156 246.75 9.69531 246.984 9.55469C247.219 9.39844 247.391 9.28125 247.5 9.20312C247.734 9.04688 247.953 8.97656 248.156 8.99219C248.359 9.00781 248.523 9.08594 248.648 9.22656C248.789 9.35156 248.875 9.53125 248.906 9.76562C248.938 9.98438 248.906 10.2344 248.812 10.5156C248.438 11.2188 248.062 11.9062 247.688 12.5781C247.328 13.25 246.992 13.9297 246.68 14.6172C246.383 15.2891 246.133 15.9844 245.93 16.7031C245.742 17.4219 245.641 18.1875 245.625 19C245.547 19.0469 245.461 19.0469 245.367 19C245.289 18.9531 245.211 18.8906 245.133 18.8125C245.055 18.7344 244.984 18.6562 244.922 18.5781C244.875 18.5 244.852 18.4609 244.852 18.4609ZM251.602 18.7422C251.133 18.5859 250.773 18.3516 250.523 18.0391C250.289 17.7109 250.133 17.3516 250.055 16.9609C249.977 16.5703 249.961 16.1641 250.008 15.7422C250.07 15.3047 250.164 14.8906 250.289 14.5C250.758 14 251.281 13.4297 251.859 12.7891C252.453 12.1328 253.078 11.4922 253.734 10.8672C254.391 10.2422 255.07 9.66406 255.773 9.13281C256.492 8.58594 257.219 8.17188 257.953 7.89062C258.203 7.78125 258.398 7.78906 258.539 7.91406C258.695 8.02344 258.805 8.20312 258.867 8.45312C258.93 8.70312 258.953 8.99219 258.938 9.32031C258.938 9.64844 258.914 9.96875 258.867 10.2812C258.82 10.5938 258.758 10.875 258.68 11.125C258.602 11.375 258.523 11.5469 258.445 11.6406C258.258 11.8594 257.891 12.1172 257.344 12.4141C256.812 12.7109 256.219 13.0391 255.562 13.3984C254.906 13.7422 254.25 14.1016 253.594 14.4766C252.938 14.8516 252.398 15.2266 251.977 15.6016C251.555 15.9609 251.305 16.3203 251.227 16.6797C251.148 17.0391 251.367 17.3672 251.883 17.6641C252.414 17.7266 253.055 17.7031 253.805 17.5938C254.57 17.4688 255.344 17.3125 256.125 17.125C256.922 16.9219 257.688 16.7188 258.422 16.5156C259.156 16.2969 259.758 16.125 260.227 16L260.508 16.2578C260.164 16.7109 259.602 17.125 258.82 17.5C258.039 17.875 257.195 18.1875 256.289 18.4375C255.383 18.6719 254.5 18.8281 253.641 18.9062C252.781 18.9688 252.102 18.9141 251.602 18.7422ZM257.203 9.78906C257.188 9.77344 257.07 9.84375 256.852 10C256.633 10.1406 256.359 10.3359 256.031 10.5859C255.719 10.8203 255.375 11.0859 255 11.3828C254.641 11.6641 254.305 11.9297 253.992 12.1797C253.695 12.4297 253.445 12.6484 253.242 12.8359C253.039 13.0078 252.953 13.0938 252.984 13.0938C253.234 13.1406 253.555 13.1094 253.945 13C254.352 12.875 254.766 12.7031 255.188 12.4844C255.625 12.2656 256.039 12.0234 256.43 11.7578C256.82 11.4766 257.125 11.2031 257.344 10.9375C257.578 10.6719 257.695 10.4375 257.695 10.2344C257.711 10.0312 257.547 9.88281 257.203 9.78906ZM274.383 18.4609C274.211 18.2578 274.109 18.0312 274.078 17.7812C274.062 17.5156 274.078 17.2578 274.125 17.0078C274.188 16.7422 274.266 16.4922 274.359 16.2578C274.469 16.0078 274.57 15.7812 274.664 15.5781C274.727 15.4219 274.852 15.1406 275.039 14.7344C275.242 14.3125 275.453 13.875 275.672 13.4219C275.906 12.9688 276.125 12.5469 276.328 12.1562C276.531 11.75 276.672 11.4688 276.75 11.3125V10.7969C276.594 10.7188 276.273 10.8281 275.789 11.125C275.305 11.4062 274.742 11.8047 274.102 12.3203C273.461 12.8203 272.781 13.3828 272.062 14.0078C271.344 14.6328 270.664 15.2344 270.023 15.8125C269.398 16.375 268.852 16.8828 268.383 17.3359C267.914 17.7734 267.617 18.0625 267.492 18.2031C267.148 18.3125 266.922 18.2422 266.812 17.9922C266.719 17.7266 266.695 17.3672 266.742 16.9141C266.789 16.4453 266.883 15.9297 267.023 15.3672C267.164 14.7891 267.305 14.25 267.445 13.75C267.602 13.2344 267.734 12.7969 267.844 12.4375C267.969 12.0781 268.023 11.8828 268.008 11.8516C267.695 11.7422 267.367 11.7812 267.023 11.9688C266.68 12.1562 266.328 12.4375 265.969 12.8125C265.609 13.1719 265.25 13.6016 264.891 14.1016C264.531 14.5859 264.172 15.0781 263.812 15.5781C263.453 16.0625 263.109 16.5312 262.781 16.9844C262.453 17.4219 262.141 17.7812 261.844 18.0625C261.547 18.3438 261.266 18.5078 261 18.5547C260.75 18.6016 260.531 18.4844 260.344 18.2031C260.328 18.1875 260.32 18.1484 260.32 18.0859C260.32 18.0234 260.328 17.9766 260.344 17.9453C260.422 17.7891 260.539 17.5469 260.695 17.2188C260.867 16.875 261.055 16.4922 261.258 16.0703C261.461 15.6484 261.68 15.2109 261.914 14.7578C262.148 14.2891 262.367 13.8516 262.57 13.4453C262.789 13.0234 262.977 12.6484 263.133 12.3203C263.305 11.9922 263.438 11.75 263.531 11.5938C263.609 11.4375 263.719 11.2422 263.859 11.0078C264 10.7578 264.141 10.5234 264.281 10.3047C264.422 10.0703 264.547 9.875 264.656 9.71875C264.766 9.54688 264.82 9.46094 264.82 9.46094H265.383C265.492 9.82031 265.477 10.1562 265.336 10.4688C265.195 10.7812 265.023 11.0859 264.82 11.3828C264.633 11.6797 264.469 11.9766 264.328 12.2734C264.203 12.5547 264.203 12.8594 264.328 13.1875C265.672 12 266.703 11.125 267.422 10.5625C268.156 10 268.672 9.67969 268.969 9.60156C269.266 9.52344 269.406 9.64062 269.391 9.95312C269.375 10.2656 269.305 10.6875 269.18 11.2188C269.07 11.75 268.953 12.3594 268.828 13.0469C268.719 13.7188 268.711 14.375 268.805 15.0156H269.086C269.18 14.9531 269.336 14.8359 269.555 14.6641C269.773 14.4922 270.008 14.3047 270.258 14.1016C270.523 13.8984 270.766 13.7109 270.984 13.5391C271.219 13.3672 271.383 13.25 271.477 13.1875C271.648 13.0469 271.898 12.8516 272.227 12.6016C272.555 12.3516 272.883 12.1016 273.211 11.8516C273.555 11.5859 273.859 11.3594 274.125 11.1719C274.406 10.9688 274.586 10.8438 274.664 10.7969C274.727 10.75 274.859 10.6562 275.062 10.5156C275.281 10.3594 275.516 10.1953 275.766 10.0234C276.031 9.85156 276.281 9.69531 276.516 9.55469C276.75 9.39844 276.922 9.28125 277.031 9.20312C277.266 9.04688 277.484 8.97656 277.688 8.99219C277.891 9.00781 278.055 9.08594 278.18 9.22656C278.32 9.35156 278.406 9.53125 278.438 9.76562C278.469 9.98438 278.438 10.2344 278.344 10.5156C277.969 11.2188 277.594 11.9062 277.219 12.5781C276.859 13.25 276.523 13.9297 276.211 14.6172C275.914 15.2891 275.664 15.9844 275.461 16.7031C275.273 17.4219 275.172 18.1875 275.156 19C275.078 19.0469 274.992 19.0469 274.898 19C274.82 18.9531 274.742 18.8906 274.664 18.8125C274.586 18.7344 274.516 18.6562 274.453 18.5781C274.406 18.5 274.383 18.4609 274.383 18.4609ZM279.562 18.2031C279.531 18.1875 279.516 18.1484 279.516 18.0859C279.516 18.0234 279.531 17.9766 279.562 17.9453C279.766 17.5391 279.992 17.0078 280.242 16.3516C280.492 15.6797 280.758 14.9531 281.039 14.1719C281.32 13.375 281.602 12.5547 281.883 11.7109C282.18 10.8516 282.469 10.0312 282.75 9.25C283.047 8.45312 283.336 7.72656 283.617 7.07031C283.898 6.41406 284.164 5.89062 284.414 5.5C284.664 5.09375 284.891 4.85937 285.094 4.79688C285.297 4.71875 285.477 4.86719 285.633 5.24219C285.773 5.60156 285.812 5.97656 285.75 6.36719C285.688 6.74219 285.562 7.13281 285.375 7.53906C285.203 7.92969 284.992 8.33594 284.742 8.75781C284.508 9.16406 284.289 9.57031 284.086 9.97656C283.883 10.3828 283.719 10.7891 283.594 11.1953C283.469 11.6016 283.438 12 283.5 12.3906C283.938 12.2812 284.328 12.0703 284.672 11.7578C285.031 11.4453 285.375 11.1172 285.703 10.7734C286.047 10.4141 286.398 10.0859 286.758 9.78906C287.117 9.49219 287.531 9.29688 288 9.20312C288.734 9.0625 289.352 9.10156 289.852 9.32031C290.352 9.52344 290.719 9.84375 290.953 10.2812C291.203 10.7188 291.32 11.2422 291.305 11.8516C291.289 12.4609 291.133 13.0938 290.836 13.75C290.539 14.4062 290.094 15.0469 289.5 15.6719C288.906 16.2969 288.156 16.8516 287.25 17.3359C286.344 17.8203 285.273 18.1953 284.039 18.4609C282.805 18.7266 281.398 18.8203 279.82 18.7422C279.789 18.7109 279.734 18.625 279.656 18.4844C279.594 18.3438 279.562 18.25 279.562 18.2031ZM281.648 16.8906C281.633 16.9531 281.625 17.0859 281.625 17.2891C281.625 17.4766 281.633 17.6016 281.648 17.6641C282.695 17.8047 283.742 17.7266 284.789 17.4297C285.852 17.1172 286.797 16.6406 287.625 16C288.453 15.3438 289.109 14.5469 289.594 13.6094C290.078 12.6719 290.266 11.6406 290.156 10.5156C290.141 10.4844 290.094 10.4375 290.016 10.375C289.953 10.3125 289.906 10.2734 289.875 10.2578C289.359 10.1797 288.82 10.2266 288.258 10.3984C287.695 10.5703 287.133 10.8281 286.57 11.1719C286.008 11.5 285.461 11.8984 284.93 12.3672C284.414 12.8359 283.938 13.3281 283.5 13.8438C283.062 14.3594 282.68 14.8828 282.352 15.4141C282.039 15.9453 281.805 16.4375 281.648 16.8906ZM293.977 18.7422C293.508 18.5859 293.148 18.3516 292.898 18.0391C292.664 17.7109 292.508 17.3516 292.43 16.9609C292.352 16.5703 292.336 16.1641 292.383 15.7422C292.445 15.3047 292.539 14.8906 292.664 14.5C293.133 14 293.656 13.4297 294.234 12.7891C294.828 12.1328 295.453 11.4922 296.109 10.8672C296.766 10.2422 297.445 9.66406 298.148 9.13281C298.867 8.58594 299.594 8.17188 300.328 7.89062C300.578 7.78125 300.773 7.78906 300.914 7.91406C301.07 8.02344 301.18 8.20312 301.242 8.45312C301.305 8.70312 301.328 8.99219 301.312 9.32031C301.312 9.64844 301.289 9.96875 301.242 10.2812C301.195 10.5938 301.133 10.875 301.055 11.125C300.977 11.375 300.898 11.5469 300.82 11.6406C300.633 11.8594 300.266 12.1172 299.719 12.4141C299.188 12.7109 298.594 13.0391 297.938 13.3984C297.281 13.7422 296.625 14.1016 295.969 14.4766C295.312 14.8516 294.773 15.2266 294.352 15.6016C293.93 15.9609 293.68 16.3203 293.602 16.6797C293.523 17.0391 293.742 17.3672 294.258 17.6641C294.789 17.7266 295.43 17.7031 296.18 17.5938C296.945 17.4688 297.719 17.3125 298.5 17.125C299.297 16.9219 300.062 16.7188 300.797 16.5156C301.531 16.2969 302.133 16.125 302.602 16L302.883 16.2578C302.539 16.7109 301.977 17.125 301.195 17.5C300.414 17.875 299.57 18.1875 298.664 18.4375C297.758 18.6719 296.875 18.8281 296.016 18.9062C295.156 18.9688 294.477 18.9141 293.977 18.7422ZM299.578 9.78906C299.562 9.77344 299.445 9.84375 299.227 10C299.008 10.1406 298.734 10.3359 298.406 10.5859C298.094 10.8203 297.75 11.0859 297.375 11.3828C297.016 11.6641 296.68 11.9297 296.367 12.1797C296.07 12.4297 295.82 12.6484 295.617 12.8359C295.414 13.0078 295.328 13.0938 295.359 13.0938C295.609 13.1406 295.93 13.1094 296.32 13C296.727 12.875 297.141 12.7031 297.562 12.4844C298 12.2656 298.414 12.0234 298.805 11.7578C299.195 11.4766 299.5 11.2031 299.719 10.9375C299.953 10.6719 300.07 10.4375 300.07 10.2344C300.086 10.0312 299.922 9.88281 299.578 9.78906ZM302.859 18.7422C302.828 18.7266 302.828 18.5469 302.859 18.2031C302.906 17.8438 302.969 17.3984 303.047 16.8672C303.125 16.3359 303.227 15.75 303.352 15.1094C303.477 14.4688 303.609 13.8594 303.75 13.2812C303.891 12.6875 304.039 12.1719 304.195 11.7344C304.367 11.2812 304.531 10.9688 304.688 10.7969C304.797 10.6875 304.906 10.6875 305.016 10.7969C305.125 10.8906 305.234 11.0156 305.344 11.1719C305.453 11.3125 305.562 11.4453 305.672 11.5703C305.781 11.6797 305.898 11.6875 306.023 11.5938C306.461 10.9844 306.938 10.4062 307.453 9.85938C307.984 9.29688 308.57 8.8125 309.211 8.40625C309.273 8.35938 309.445 8.28906 309.727 8.19531C310.008 8.08594 310.328 7.98438 310.688 7.89062C311.047 7.78125 311.414 7.69531 311.789 7.63281C312.18 7.55469 312.508 7.52344 312.773 7.53906C313.055 7.53906 313.242 7.60938 313.336 7.75C313.445 7.875 313.398 8.09375 313.195 8.40625C312.258 8.42188 311.383 8.69531 310.57 9.22656C309.758 9.75781 309.008 10.4141 308.32 11.1953C307.633 11.9766 307.008 12.8281 306.445 13.75C305.883 14.6562 305.391 15.5 304.969 16.2812C304.562 17.0625 304.219 17.7109 303.938 18.2266C303.672 18.7422 303.477 19 303.352 19C303.336 19 303.266 18.9688 303.141 18.9062C303.016 18.8281 302.922 18.7734 302.859 18.7422ZM314.25 18.7422C314.062 18.6172 314.055 18.4531 314.227 18.25C314.414 18.0312 314.703 17.8047 315.094 17.5703C315.5 17.3203 315.969 17.0625 316.5 16.7969C317.031 16.5312 317.539 16.2812 318.023 16.0469C318.523 15.8125 318.961 15.6094 319.336 15.4375C319.711 15.25 319.953 15.1094 320.062 15.0156C320.578 14.5781 320.844 14.2188 320.859 13.9375C320.891 13.6406 320.766 13.4062 320.484 13.2344C320.203 13.0469 319.805 12.9062 319.289 12.8125C318.789 12.7031 318.266 12.6094 317.719 12.5312C317.188 12.4375 316.672 12.3438 316.172 12.25C315.688 12.1562 315.32 12.0312 315.07 11.875C314.82 11.7188 314.734 11.5156 314.812 11.2656C314.906 11 315.25 10.6641 315.844 10.2578C316.062 10.1016 316.383 9.875 316.805 9.57812C317.227 9.28125 317.68 8.97656 318.164 8.66406C318.664 8.35156 319.156 8.07031 319.641 7.82031C320.125 7.57031 320.531 7.40625 320.859 7.32812C321.031 7.29688 321.203 7.3125 321.375 7.375C321.562 7.4375 321.711 7.53125 321.82 7.65625C321.93 7.76562 321.977 7.89062 321.961 8.03125C321.961 8.17188 321.859 8.29688 321.656 8.40625C320.766 8.90625 319.906 9.375 319.078 9.8125C318.266 10.25 317.445 10.75 316.617 11.3125C316.57 11.4375 316.578 11.5469 316.641 11.6406C316.719 11.7344 316.805 11.8047 316.898 11.8516C318.555 12.0234 319.797 12.2656 320.625 12.5781C321.469 12.8906 322 13.2344 322.219 13.6094C322.453 13.9844 322.43 14.3828 322.148 14.8047C321.867 15.2266 321.445 15.6406 320.883 16.0469C320.336 16.4531 319.703 16.8359 318.984 17.1953C318.266 17.5547 317.57 17.8594 316.898 18.1094C316.242 18.3594 315.664 18.5469 315.164 18.6719C314.664 18.7969 314.359 18.8203 314.25 18.7422Z" fill="#353535"/>
</svg>
