<svg width="1146" height="7" viewBox="0 0 1146 7" fill="none" xmlns="http://www.w3.org/2000/svg">
<path opacity="0.16" d="M0.333333 4C0.333333 5.47276 1.52724 6.66667 3 6.66667C4.47276 6.66667 5.66667 5.47276 5.66667 4C5.66667 2.52724 4.47276 1.33333 3 1.33333C1.52724 1.33333 0.333333 2.52724 0.333333 4ZM1140.33 3C1140.33 4.47276 1141.53 5.66667 1143 5.66667C1144.47 5.66667 1145.67 4.47276 1145.67 3C1145.67 1.52724 1144.47 0.333333 1143 0.333333C1141.53 0.333333 1140.33 1.52724 1140.33 3ZM3 4L3.00044 4.5L1143 3.5L1143 3L1143 2.5L2.99956 3.5L3 4Z" fill="#070127"/>
</svg>
