<svg width="42" height="42" viewBox="0 0 42 42" fill="none" xmlns="http://www.w3.org/2000/svg">
<path d="M35.6711 40.9999H21.003C18.3303 41.0066 15.6836 40.475 13.2206 39.4368C10.8494 38.4396 8.69873 36.9833 6.89221 35.1515L6.25676 34.5095C6.2396 34.4923 6.22308 34.4745 6.20719 34.4567C4.6898 32.7848 3.4641 30.8697 2.58132 28.7914C1.53779 26.3309 1 23.6854 1 21.0126C1 18.3398 1.53779 15.6944 2.58132 13.2339C3.59553 10.8583 5.05568 8.69927 6.88268 6.87376L7.52766 6.23107C7.54672 6.212 7.56642 6.19356 7.58612 6.17576C11.389 2.72968 16.371 0.878721 21.5005 1.00617C26.6299 1.13362 31.514 3.22972 35.1411 6.86041L35.2047 6.92398C35.2383 6.95386 35.2682 6.98437 35.3019 7.01679C37.0626 8.82941 38.4693 10.9552 39.4495 13.2848C40.4778 15.7278 41.0051 18.3526 41 21.0034C40.9998 23.1121 40.667 25.2075 40.0137 27.2123C40.0048 27.2403 39.9953 27.267 39.9845 27.2943C39.3922 29.1041 38.5357 30.8163 37.4427 32.3754L37.2584 32.6418V39.4107C37.2584 39.832 37.0912 40.236 36.7936 40.534C36.4959 40.832 36.0922 40.9996 35.6711 40.9999ZM8.53739 32.2953L9.1525 32.9145C10.6659 34.45 12.4675 35.6712 14.4541 36.5081C16.5256 37.3806 18.7515 37.8272 20.9992 37.8214H34.0825V32.144C34.0827 31.8217 34.1809 31.5072 34.364 31.242L34.8323 30.5637C35.7595 29.2428 36.4833 27.7901 36.9795 26.2543C36.9896 26.2225 37.0011 26.1907 37.0132 26.1602C37.5485 24.4932 37.8212 22.753 37.8214 21.0021C37.8258 18.7754 37.3833 16.5705 36.52 14.518C35.7004 12.5714 34.5277 10.7933 33.0613 9.27352L33.0441 9.25763L32.9869 9.20423C32.9736 9.19215 32.9603 9.17944 32.9475 9.16609L32.8942 9.11269C29.844 6.06988 25.7443 4.31181 21.4382 4.19996C17.1321 4.0881 12.9468 5.63097 9.74283 8.51132L9.1309 9.11968C7.59041 10.6582 6.35913 12.478 5.50375 14.4805C4.62773 16.5472 4.17628 18.7691 4.17628 21.0139C4.17628 23.2587 4.62773 25.4806 5.50375 27.5473C6.24332 29.2878 7.2682 30.8925 8.53612 32.2953H8.53739Z" fill="#353535"/>
<path d="M23.1966 10.5182L12.1029 22.9366C12.0237 23.0252 11.9718 23.1349 11.9534 23.2523C11.9351 23.3698 11.9512 23.4901 11.9997 23.5986C12.0482 23.7072 12.1271 23.7994 12.2268 23.8641C12.3265 23.9288 12.4428 23.9632 12.5617 23.9632H19.7918C19.8566 23.9631 19.9206 23.9779 19.9788 24.0063C20.037 24.0348 20.0879 24.0762 20.1276 24.1273C20.1674 24.1785 20.1949 24.2381 20.2081 24.3016C20.2212 24.365 20.2197 24.4306 20.2036 24.4934L17.9579 33.28C17.7965 33.9157 18.6016 34.3296 19.0242 33.8312L29.9095 20.999C29.9863 20.9094 30.0358 20.7996 30.052 20.6827C30.0683 20.5658 30.0506 20.4467 30.0012 20.3396C29.9517 20.2324 29.8725 20.1417 29.773 20.0783C29.6735 20.0149 29.5578 19.9814 29.4399 19.9819H22.4448C22.3797 19.9819 22.3155 19.967 22.2571 19.9382C22.1987 19.9095 22.1477 19.8677 22.108 19.8161C22.0683 19.7645 22.0411 19.7044 22.0283 19.6406C22.0155 19.5767 22.0176 19.5108 22.0343 19.4479L24.2508 11.0903C24.4166 10.4623 23.628 10.037 23.1966 10.5182Z" fill="#353535"/>
<path d="M35.6711 40.9999H21.003C18.3303 41.0066 15.6836 40.475 13.2206 39.4368C10.8494 38.4396 8.69873 36.9833 6.89221 35.1515L6.25676 34.5095C6.2396 34.4923 6.22308 34.4745 6.20719 34.4567C4.6898 32.7848 3.4641 30.8697 2.58132 28.7914C1.53779 26.3309 1 23.6854 1 21.0126C1 18.3398 1.53779 15.6944 2.58132 13.2339C3.59553 10.8583 5.05568 8.69927 6.88268 6.87376L7.52766 6.23107C7.54672 6.212 7.56642 6.19356 7.58612 6.17576C11.389 2.72968 16.371 0.878721 21.5005 1.00617C26.6299 1.13362 31.514 3.22972 35.1411 6.86041L35.2047 6.92398C35.2383 6.95386 35.2682 6.98437 35.3019 7.01679C37.0626 8.82941 38.4693 10.9552 39.4495 13.2848C40.4778 15.7278 41.0051 18.3526 41 21.0034C40.9998 23.1121 40.667 25.2075 40.0137 27.2123C40.0048 27.2403 39.9953 27.267 39.9845 27.2943C39.3922 29.1041 38.5357 30.8163 37.4427 32.3754L37.2584 32.6418V39.4107C37.2584 39.832 37.0912 40.236 36.7936 40.534C36.4959 40.832 36.0922 40.9996 35.6711 40.9999ZM8.53739 32.2953L9.1525 32.9145C10.6659 34.45 12.4675 35.6712 14.4541 36.5081C16.5256 37.3806 18.7515 37.8272 20.9992 37.8214H34.0825V32.144C34.0827 31.8217 34.1809 31.5072 34.364 31.242L34.8323 30.5637C35.7595 29.2428 36.4833 27.7901 36.9795 26.2543C36.9896 26.2225 37.0011 26.1907 37.0132 26.1602C37.5485 24.4932 37.8212 22.753 37.8214 21.0021C37.8258 18.7754 37.3833 16.5705 36.52 14.518C35.7004 12.5714 34.5277 10.7933 33.0613 9.27352L33.0441 9.25763L32.9869 9.20423C32.9736 9.19215 32.9603 9.17944 32.9475 9.16609L32.8942 9.11269C29.844 6.06988 25.7443 4.31181 21.4382 4.19996C17.1321 4.0881 12.9468 5.63097 9.74283 8.51132L9.1309 9.11968C7.59041 10.6582 6.35913 12.478 5.50375 14.4805C4.62773 16.5472 4.17628 18.7691 4.17628 21.0139C4.17628 23.2587 4.62773 25.4806 5.50375 27.5473C6.24332 29.2878 7.2682 30.8925 8.53612 32.2953H8.53739Z" stroke="#E1FFAA" stroke-width="2"/>
<path d="M23.1966 10.5182L12.1029 22.9366C12.0237 23.0252 11.9718 23.1349 11.9534 23.2523C11.9351 23.3698 11.9512 23.4901 11.9997 23.5986C12.0482 23.7072 12.1271 23.7994 12.2268 23.8641C12.3265 23.9288 12.4428 23.9632 12.5617 23.9632H19.7918C19.8566 23.9631 19.9206 23.9779 19.9788 24.0063C20.037 24.0348 20.0879 24.0762 20.1276 24.1273C20.1674 24.1785 20.1949 24.2381 20.2081 24.3016C20.2212 24.365 20.2197 24.4306 20.2036 24.4934L17.9579 33.28C17.7965 33.9157 18.6016 34.3296 19.0242 33.8312L29.9095 20.999C29.9863 20.9094 30.0358 20.7996 30.052 20.6827C30.0683 20.5658 30.0506 20.4467 30.0012 20.3396C29.9517 20.2324 29.8725 20.1417 29.773 20.0783C29.6735 20.0149 29.5578 19.9814 29.4399 19.9819H22.4448C22.3797 19.9819 22.3155 19.967 22.2571 19.9382C22.1987 19.9095 22.1477 19.8677 22.108 19.8161C22.0683 19.7645 22.0411 19.7044 22.0283 19.6406C22.0155 19.5767 22.0176 19.5108 22.0343 19.4479L24.2508 11.0903C24.4166 10.4623 23.628 10.037 23.1966 10.5182Z" stroke="#E1FFAA" stroke-width="2"/>
</svg>
