<svg width="32" height="40" viewBox="0 0 32 40" fill="none" xmlns="http://www.w3.org/2000/svg">
<path d="M10.549 39C9.97105 39.0001 9.41094 38.8008 8.96404 38.4362C8.51715 38.0715 8.2111 37.564 8.098 37.0001L6.49975 29.0505H3.49975C3.00154 29.0514 2.51453 28.9034 2.10175 28.6259C1.69995 28.3557 1.38551 27.9755 1.1965 27.5311C1.06624 27.2249 0.999406 26.8958 1 26.5633V11.6386C0.999103 11.1429 1.14777 10.6583 1.42675 10.2476C1.69827 9.84766 2.08042 9.53455 2.527 9.34615C2.83544 9.21628 3.16708 9.14978 3.502 9.15064H13.5003L27.2597 1.32786C27.6399 1.11164 28.0705 0.998588 28.5084 1.00001C28.9463 1.00144 29.3762 1.11729 29.7549 1.33598C30.1337 1.55467 30.448 1.86852 30.6665 2.2461C30.8851 2.62369 31 3.05176 31 3.48746V34.7136C31.0009 35.2093 30.8522 35.6939 30.5732 36.1046C30.3019 36.5047 29.9197 36.8178 29.473 37.0061C29.1187 37.1546 28.7347 37.22 28.3509 37.1971C27.9671 37.1742 27.5937 37.0636 27.2597 36.874L14.0642 29.3713L15.4 36.0248C15.4724 36.3857 15.4635 36.758 15.3739 37.1151C15.2842 37.4721 15.1161 37.8049 14.8816 38.0895C14.6471 38.3741 14.352 38.6034 14.0177 38.7608C13.6834 38.9183 13.3181 39 12.9483 39H10.549ZM9.049 29.0505L10.549 36.5128H12.949L11.449 29.0505H9.049ZM28.4995 34.7136V3.48746L16 10.5946V27.6087L28.4995 34.7136ZM3.49975 26.5633H13.4995V11.6386H3.49975V26.5633Z" fill="white" stroke="#AE8DFF"/>
</svg>
