<svg width="38" height="38" viewBox="0 0 38 38" fill="none" xmlns="http://www.w3.org/2000/svg">
<path d="M33.9982 21.991C33.3071 21.991 32.6593 22.2286 32.141 22.6605L27.8002 20.8896C27.9514 20.2849 28.0162 19.6587 28.0162 18.9892C28.0162 18.3197 27.9514 17.6935 27.8002 17.0888L32.141 15.3179C32.6593 15.7283 33.3071 15.9874 33.9982 15.9874C35.6395 15.9874 37 14.6485 37 12.9856C37 11.3227 35.6611 9.9838 33.9982 9.9838C32.5081 9.9838 31.234 11.0852 31.018 12.5537L26.6773 14.3029C25.9214 13.072 24.9064 12.057 23.6755 11.3011L25.4247 6.96041C26.8932 6.74445 27.9946 5.4919 27.9946 4.0018C27.9946 2.36053 26.6557 1 24.9928 1C23.3299 1 21.991 2.33893 21.991 4.0018C21.991 4.69286 22.2286 5.34073 22.6605 5.85903L20.8896 10.1998C20.2849 10.0486 19.6587 9.9838 18.9892 9.9838C18.3197 9.9838 17.6935 10.0486 17.0888 10.1998L15.3179 5.85903C15.7283 5.34073 15.9874 4.69286 15.9874 4.0018C15.9874 2.36053 14.6485 1 12.9856 1C11.3227 1 9.9838 2.33893 9.9838 4.0018C9.9838 5.4919 11.0852 6.76605 12.5537 6.96041L14.3029 11.3011C13.072 12.057 12.057 13.072 11.3011 14.3029L6.96041 12.5537C6.74445 11.0852 5.4919 9.9838 4.0018 9.9838C2.36053 9.9838 1 11.3227 1 12.9856C1 14.6485 2.33893 15.9874 4.0018 15.9874C4.69286 15.9874 5.34073 15.7498 5.85903 15.3179L10.1998 17.0888C10.0486 17.6935 9.9838 18.3197 9.9838 18.9892C9.9838 19.6587 10.0486 20.2849 10.1998 20.8896L5.85903 22.6605C5.34073 22.2286 4.67127 21.991 4.0018 21.991C2.36053 21.991 1 23.3299 1 24.9928C1 26.6557 2.33893 27.9946 4.0018 27.9946C5.4919 27.9946 6.76605 26.8932 6.96041 25.4247L11.3011 23.6755C12.057 24.9064 13.072 25.9214 14.3029 26.6773L12.5537 31.018C11.0852 31.234 9.9838 32.4865 9.9838 33.9982C9.9838 35.6395 11.3227 37 12.9856 37C14.6485 37 15.9874 35.6611 15.9874 33.9982C15.9874 33.3071 15.7499 32.6593 15.3179 32.141L17.0888 27.8002C17.6935 27.9514 18.3197 28.0162 18.9892 28.0162C19.6587 28.0162 20.2849 27.9514 20.8896 27.8002L22.6605 32.141C22.2502 32.6593 21.991 33.3071 21.991 33.9982C21.991 35.6395 23.3299 37 24.9928 37C26.6557 37 27.9946 35.6611 27.9946 33.9982C27.9946 32.5081 26.8932 31.234 25.4247 31.018L23.6755 26.6773C24.9064 25.9214 25.9214 24.9064 26.6773 23.6755L31.018 25.4247C31.234 26.8932 32.4865 27.9946 33.9982 27.9946C35.6395 27.9946 37 26.6557 37 24.9928C37 23.3299 35.6611 21.991 33.9982 21.991ZM19.0108 24.9928C15.7067 24.9928 13.0072 22.2933 13.0072 18.9892C13.0072 15.6851 15.7067 12.9856 19.0108 12.9856C22.3149 12.9856 25.0144 15.6851 25.0144 18.9892C25.0144 22.2933 22.3149 24.9928 19.0108 24.9928Z" fill="white" stroke="#AE8DFF" stroke-width="2"/>
</svg>
